<svg xmlns="http://www.w3.org/2000/svg" xmlns:xlink="http://www.w3.org/1999/xlink" viewBox="0 0 592.93 477.23" width="592.93"  height="477.23" ><defs><style>.cls-1{isolation:isolate;}.cls-2{opacity:0.19;}.cls-2,.cls-32,.cls-33,.cls-4,.cls-5,.cls-80,.cls-87{mix-blend-mode:multiply;}.cls-3,.cls-80{fill:#4588ff;}.cls-33,.cls-4,.cls-80,.cls-96{opacity:0.35;}.cls-25,.cls-5,.cls-86{opacity:0.25;}.cls-116,.cls-6,.cls-89,.cls-90{fill:#fff;}.cls-7{fill:url(#linear-gradient);}.cls-8{fill:#2875df;}.cls-24,.cls-9{fill:#75bcfc;}.cls-10{fill:#4594f4;}.cls-11{fill:#347ee8;}.cls-12{fill:#fcc106;}.cls-117,.cls-13{fill:#205ce2;}.cls-14{fill:url(#linear-gradient-2);}.cls-15,.cls-28,.cls-77,.cls-84,.cls-85,.cls-86,.cls-87{fill:#b4bbe1;}.cls-16{fill:#dae3f2;}.cls-17{fill:#ced2ef;}.cls-18{fill:#c5c8e8;}.cls-19{fill:url(#linear-gradient-3);}.cls-20{fill:#ef770a;}.cls-21{fill:#ff9906;}.cls-22{fill:#328eea;}.cls-23{fill:url(#linear-gradient-4);}.cls-24,.cls-28{opacity:0.45;}.cls-120,.cls-26,.cls-31,.cls-81,.cls-82,.cls-97{fill:none;}.cls-26,.cls-97{stroke:#fff;}.cls-26,.cls-31,.cls-82,.cls-97{stroke-linecap:round;}.cls-120,.cls-26,.cls-31,.cls-81{stroke-miterlimit:10;}.cls-26{stroke-width:0.85px;}.cls-27{fill:url(#linear-gradient-5);}.cls-29{fill:url(#linear-gradient-6);}.cls-30{fill:#f7f5fa;}.cls-31{stroke:#b4bbe1;}.cls-32{fill:url(#linear-gradient-7);}.cls-33{fill:url(#linear-gradient-8);}.cls-34{fill:#ebf6f7;}.cls-35{fill:url(#linear-gradient-9);}.cls-36{fill:url(#linear-gradient-10);}.cls-37{fill:url(#linear-gradient-11);}.cls-38{fill:url(#linear-gradient-12);}.cls-39{fill:url(#linear-gradient-13);}.cls-40{fill:url(#linear-gradient-14);}.cls-41{fill:url(#linear-gradient-15);}.cls-42{fill:url(#linear-gradient-16);}.cls-43{fill:url(#linear-gradient-17);}.cls-44{fill:url(#linear-gradient-18);}.cls-45{fill:url(#linear-gradient-19);}.cls-46{fill:url(#linear-gradient-20);}.cls-47{fill:url(#linear-gradient-21);}.cls-48{fill:url(#linear-gradient-22);}.cls-49{fill:url(#linear-gradient-23);}.cls-50{fill:url(#linear-gradient-24);}.cls-51{fill:url(#linear-gradient-25);}.cls-52{fill:url(#linear-gradient-26);}.cls-53{fill:url(#linear-gradient-27);}.cls-54{fill:url(#linear-gradient-28);}.cls-55{fill:url(#linear-gradient-29);}.cls-56{fill:url(#linear-gradient-30);}.cls-57{fill:url(#linear-gradient-31);}.cls-58{fill:url(#linear-gradient-32);}.cls-59{fill:url(#linear-gradient-33);}.cls-60{fill:url(#linear-gradient-34);}.cls-61{fill:url(#linear-gradient-35);}.cls-62{fill:url(#linear-gradient-36);}.cls-63{fill:url(#linear-gradient-37);}.cls-64{fill:url(#linear-gradient-38);}.cls-65{fill:url(#linear-gradient-39);}.cls-66{fill:url(#linear-gradient-40);}.cls-67{fill:url(#linear-gradient-41);}.cls-68{fill:url(#linear-gradient-42);}.cls-69{fill:url(#linear-gradient-43);}.cls-70{fill:url(#linear-gradient-44);}.cls-71{fill:url(#linear-gradient-45);}.cls-72{fill:url(#linear-gradient-46);}.cls-73{fill:url(#linear-gradient-47);}.cls-74{fill:url(#linear-gradient-48);}.cls-75{fill:url(#linear-gradient-49);}.cls-76{fill:url(#linear-gradient-50);}.cls-77{font-size:11.54px;font-family:OpenSans-Bold, OpenSans Bold;font-weight:700;letter-spacing:-0.04em;}.cls-78{letter-spacing:-0.04em;}.cls-117,.cls-79{opacity:0.75;}.cls-81,.cls-82{stroke:#dae3f2;}.cls-82,.cls-97{stroke-linejoin:round;}.cls-83{fill:url(#linear-gradient-51);}.cls-84{opacity:0.11;}.cls-85{opacity:0.15;}.cls-116,.cls-87{opacity:0.55;}.cls-88,.cls-89{opacity:0.2;}.cls-88{mix-blend-mode:screen;fill:url(#linear-gradient-52);}.cls-90{opacity:0.4;}.cls-91{fill:#81c5e8;}.cls-92{fill:#cdd5f7;}.cls-93{fill:#2d2d2d;}.cls-94{fill:#3a3a3a;}.cls-95{fill:#4b4c4c;}.cls-97{stroke-width:2.76px;}.cls-98{fill:#f2ba88;}.cls-99{fill:#ffd1a4;}.cls-100{fill:#e8ecf7;}.cls-101{fill:url(#linear-gradient-53);}.cls-102{fill:#190b05;}.cls-103{fill:#7f391b;}.cls-104{fill:#934b32;}.cls-105{fill:#682c17;}.cls-106{fill:#595959;opacity:0.5;}.cls-107{fill:#845424;}.cls-108{fill:#713e23;}.cls-109,.cls-112{fill:#efefef;}.cls-109{opacity:0.39;}.cls-110{fill:#442312;}.cls-111{fill:#d39867;}.cls-113{fill:#1d68d6;}.cls-114{fill:url(#linear-gradient-54);}.cls-115{fill:#063444;}.cls-118{fill:#ccc;}.cls-119{fill:#165bd6;}.cls-120{stroke:#381e1e;stroke-width:0.7px;}.cls-121{fill:#474747;}.cls-122{fill:#134dce;}</style><linearGradient id="linear-gradient" x1="141.8" y1="171.25" x2="78.23" y2="207.95" gradientUnits="userSpaceOnUse"><stop offset="0" stop-color="#b4bbe1" stop-opacity="0.1"/><stop offset="0.63" stop-color="#b4bbe1" stop-opacity="0.24"/><stop offset="1" stop-color="#b4bbe1" stop-opacity="0.3"/></linearGradient><linearGradient id="linear-gradient-2" x1="181.31" y1="181.17" x2="117.75" y2="217.87" xlink:href="#linear-gradient"/><linearGradient id="linear-gradient-3" x1="45.84" y1="252.79" x2="11.89" y2="272.39" xlink:href="#linear-gradient"/><linearGradient id="linear-gradient-4" x1="1407.96" y1="282.98" x2="1631.56" y2="412.08" gradientTransform="matrix(-1, 0, 0, 1, 1864.45, 0)" xlink:href="#linear-gradient"/><linearGradient id="linear-gradient-5" x1="395.81" y1="290.76" x2="262.52" y2="367.72" gradientUnits="userSpaceOnUse"><stop offset="0" stop-color="#ced5ef"/><stop offset="0.37" stop-color="#d5ddf1"/><stop offset="0.87" stop-color="#dae3f2"/></linearGradient><linearGradient id="linear-gradient-6" x1="430.1" y1="269.8" x2="295.81" y2="347.33" xlink:href="#linear-gradient-5"/><linearGradient id="linear-gradient-7" x1="316.67" y1="357.55" x2="316.67" y2="164.01" xlink:href="#linear-gradient"/><linearGradient id="linear-gradient-8" x1="324.54" y1="364.32" x2="433.91" y2="174.88" gradientUnits="userSpaceOnUse"><stop offset="0" stop-color="#b4bbe1" stop-opacity="0.1"/><stop offset="0.41" stop-color="#b4bbe1" stop-opacity="0.4"/><stop offset="0.83" stop-color="#b4bbe1" stop-opacity="0.8"/><stop offset="0.84" stop-color="#c5cbe8" stop-opacity="0.68"/><stop offset="0.87" stop-color="#dadef0" stop-opacity="0.55"/><stop offset="0.89" stop-color="#eaecf7" stop-opacity="0.44"/><stop offset="0.92" stop-color="#f6f7fb" stop-opacity="0.36"/><stop offset="0.96" stop-color="#fdfdfe" stop-opacity="0.31"/><stop offset="1" stop-color="#fff" stop-opacity="0.3"/></linearGradient><linearGradient id="linear-gradient-9" x1="355.76" y1="202.9" x2="407.13" y2="202.9" xlink:href="#linear-gradient-5"/><linearGradient id="linear-gradient-10" x1="355.76" y1="197.58" x2="407.13" y2="197.58" xlink:href="#linear-gradient-5"/><linearGradient id="linear-gradient-11" x1="355.76" y1="208.21" x2="407.13" y2="208.21" xlink:href="#linear-gradient-5"/><linearGradient id="linear-gradient-12" x1="355.76" y1="213.53" x2="407.13" y2="213.53" xlink:href="#linear-gradient-5"/><linearGradient id="linear-gradient-13" x1="355.76" y1="218.85" x2="407.13" y2="218.85" xlink:href="#linear-gradient-5"/><linearGradient id="linear-gradient-14" x1="391.22" y1="264.92" x2="407.13" y2="264.92" xlink:href="#linear-gradient-5"/><linearGradient id="linear-gradient-15" x1="355.76" y1="249.4" x2="389.1" y2="249.4" xlink:href="#linear-gradient-5"/><linearGradient id="linear-gradient-16" x1="355.76" y1="250.31" x2="410.56" y2="250.31" xlink:href="#linear-gradient-5"/><linearGradient id="linear-gradient-17" x1="355.76" y1="243.99" x2="407.13" y2="243.99" xlink:href="#linear-gradient-5"/><linearGradient id="linear-gradient-18" x1="355.76" y1="238.67" x2="407.13" y2="238.67" xlink:href="#linear-gradient-5"/><linearGradient id="linear-gradient-19" x1="355.76" y1="275.11" x2="407.13" y2="275.11" xlink:href="#linear-gradient-5"/><linearGradient id="linear-gradient-20" x1="355.32" y1="282.33" x2="415.18" y2="282.33" xlink:href="#linear-gradient-5"/><linearGradient id="linear-gradient-21" x1="354.12" y1="286.56" x2="414.76" y2="286.56" xlink:href="#linear-gradient-5"/><linearGradient id="linear-gradient-22" x1="355.76" y1="269.79" x2="407.13" y2="269.79" xlink:href="#linear-gradient-5"/><linearGradient id="linear-gradient-23" x1="355.76" y1="264.48" x2="407.13" y2="264.48" xlink:href="#linear-gradient-5"/><linearGradient id="linear-gradient-24" x1="385.72" y1="267.84" x2="407.13" y2="267.84" xlink:href="#linear-gradient-5"/><linearGradient id="linear-gradient-25" x1="355.76" y1="252.35" x2="383.59" y2="252.35" xlink:href="#linear-gradient-5"/><linearGradient id="linear-gradient-26" x1="412.17" y1="279.71" x2="437.36" y2="279.71" xlink:href="#linear-gradient-5"/><linearGradient id="linear-gradient-27" x1="412.17" y1="274.4" x2="437.36" y2="274.4" xlink:href="#linear-gradient-5"/><linearGradient id="linear-gradient-28" x1="412.17" y1="266.32" x2="437.36" y2="266.32" xlink:href="#linear-gradient-5"/><linearGradient id="linear-gradient-29" x1="412.17" y1="299.23" x2="434" y2="299.23" xlink:href="#linear-gradient-5"/><linearGradient id="linear-gradient-30" x1="412.17" y1="294.88" x2="437.36" y2="294.88" xlink:href="#linear-gradient-5"/><linearGradient id="linear-gradient-31" x1="412.17" y1="289.56" x2="437.36" y2="289.56" xlink:href="#linear-gradient-5"/><linearGradient id="linear-gradient-32" x1="412.17" y1="284.25" x2="437.36" y2="284.25" xlink:href="#linear-gradient-5"/><linearGradient id="linear-gradient-33" x1="355.76" y1="225.88" x2="401.77" y2="225.88" xlink:href="#linear-gradient-5"/><linearGradient id="linear-gradient-34" x1="355.76" y1="242.22" x2="437.9" y2="242.22" xlink:href="#linear-gradient-5"/><linearGradient id="linear-gradient-35" x1="415.84" y1="314.1" x2="437.36" y2="314.1" xlink:href="#linear-gradient-5"/><linearGradient id="linear-gradient-36" x1="419.91" y1="326.63" x2="428.95" y2="326.63" xlink:href="#linear-gradient-5"/><linearGradient id="linear-gradient-37" x1="350.58" y1="304.43" x2="404.65" y2="304.43" xlink:href="#linear-gradient-5"/><linearGradient id="linear-gradient-38" x1="320.31" y1="270.77" x2="364.31" y2="270.77" xlink:href="#linear-gradient-5"/><linearGradient id="linear-gradient-39" x1="316.54" y1="273.72" x2="359.72" y2="273.72" xlink:href="#linear-gradient-5"/><linearGradient id="linear-gradient-40" x1="313.28" y1="277.06" x2="356.33" y2="277.06" xlink:href="#linear-gradient-5"/><linearGradient id="linear-gradient-41" x1="310.27" y1="280.7" x2="353.36" y2="280.7" xlink:href="#linear-gradient-5"/><linearGradient id="linear-gradient-42" x1="307.84" y1="284.59" x2="350.97" y2="284.59" xlink:href="#linear-gradient-5"/><linearGradient id="linear-gradient-43" x1="305.95" y1="288.92" x2="349.08" y2="288.92" xlink:href="#linear-gradient-5"/><linearGradient id="linear-gradient-44" x1="304.15" y1="308.03" x2="384.99" y2="308.03" xlink:href="#linear-gradient-5"/><linearGradient id="linear-gradient-45" x1="303.85" y1="314.35" x2="384.99" y2="314.35" xlink:href="#linear-gradient-5"/><linearGradient id="linear-gradient-46" x1="302.93" y1="320.2" x2="384.04" y2="320.2" xlink:href="#linear-gradient-5"/><linearGradient id="linear-gradient-47" x1="301.14" y1="325.61" x2="382.24" y2="325.61" xlink:href="#linear-gradient-5"/><linearGradient id="linear-gradient-48" x1="298.45" y1="330.54" x2="379.67" y2="330.54" xlink:href="#linear-gradient-5"/><linearGradient id="linear-gradient-49" x1="295.03" y1="335.03" x2="376.28" y2="335.03" xlink:href="#linear-gradient-5"/><linearGradient id="linear-gradient-50" x1="332.98" y1="351.28" x2="372.09" y2="351.28" xlink:href="#linear-gradient-5"/><linearGradient id="linear-gradient-51" x1="645.96" y1="400.84" x2="534.33" y2="465.29" xlink:href="#linear-gradient"/><linearGradient id="linear-gradient-52" x1="542.88" y1="408.13" x2="575.61" y2="408.13" gradientTransform="translate(12.25 -16.27) rotate(1.69)" xlink:href="#linear-gradient"/><linearGradient id="linear-gradient-53" x1="264.02" y1="398.46" x2="223.31" y2="421.97" xlink:href="#linear-gradient"/><linearGradient id="linear-gradient-54" x1="191.61" y1="422.83" x2="133.88" y2="456.16" gradientTransform="translate(-37.39 42.17) rotate(-5.77)" xlink:href="#linear-gradient"/></defs><title>banner-04</title><g class="cls-1"><g id="Layer_1" data-name="Layer 1"><g id="_Group_" data-name="&lt;Group&gt;" class="cls-2"><path class="cls-3" d="M502.81,95.53a2.65,2.65,0,0,1-.86-.32L450.8,65.78a4,4,0,0,1-2-3.36V16.62a1.92,1.92,0,0,1,1-1.78A2.34,2.34,0,0,1,452,15l51.07,29.39a4,4,0,0,1,2,3.36V93.63a1.88,1.88,0,0,1-1,1.73A2.07,2.07,0,0,1,502.81,95.53Z" transform="translate(-82.84 -14.63)"/></g><g id="_Group_2" data-name="&lt;Group&gt;" class="cls-4"><path class="cls-3" d="M523,131.36a1.9,1.9,0,0,1-.62-.23l-36.85-21.2a2.87,2.87,0,0,1-1.46-2.42v-33a1.39,1.39,0,0,1,.75-1.28,1.68,1.68,0,0,1,1.58.11l36.8,21.17a2.87,2.87,0,0,1,1.46,2.42V130a1.35,1.35,0,0,1-.73,1.25A1.49,1.49,0,0,1,523,131.36Z" transform="translate(-82.84 -14.63)"/></g><g id="_Group_3" data-name="&lt;Group&gt;" class="cls-2"><path class="cls-3" d="M300.28,104.52a1.3,1.3,0,0,1-.42-.16L274.58,89.82a2,2,0,0,1-1-1.66V65.53a1,1,0,0,1,.51-.88,1.15,1.15,0,0,1,1.09.07l25.24,14.52a2,2,0,0,1,1,1.66v22.68a.93.93,0,0,1-.5.86A1,1,0,0,1,300.28,104.52Z" transform="translate(-82.84 -14.63)"/></g><g id="_Group_4" data-name="&lt;Group&gt;"><g id="_Group_5" data-name="&lt;Group&gt;" class="cls-5"><path class="cls-3" d="M606.38,235.56a2.84,2.84,0,0,1-.92-.34l-54.84-31.55a4.27,4.27,0,0,1-2.18-3.6V151a2.06,2.06,0,0,1,1.12-1.9,2.51,2.51,0,0,1,2.36.16l54.75,31.5a4.27,4.27,0,0,1,2.18,3.6v49.2a2,2,0,0,1-1.09,1.86A2.22,2.22,0,0,1,606.38,235.56Z" transform="translate(-82.84 -14.63)"/></g><g id="_Group_6" data-name="&lt;Group&gt;"><g id="_Group_7" data-name="&lt;Group&gt;"><path class="cls-6" d="M578.87,212.15c-4.51-.16-10.59-6.42-13.59-13.93-3.45-8.62-3.35-18,.25-23.48s9.76-6.07,15.42-1.43l-.39,1.44c-1.3,4.8-2.64,9.57-3.87,14.43a11.53,11.53,0,0,0-.19,3.92c.66,5.75,1.44,11.53,2.18,17.29C578.76,211,578.81,211.57,578.87,212.15Z" transform="translate(-82.84 -14.63)"/></g><g id="_Group_8" data-name="&lt;Group&gt;"><path class="cls-6" d="M580.7,212.61l-2.38-18.67,12,10.69C588.41,209.93,585.23,212.49,580.7,212.61Z" transform="translate(-82.84 -14.63)"/></g><g id="_Group_9" data-name="&lt;Group&gt;"><path class="cls-6" d="M582.7,174.9c6.37,5.76,10.26,18.72,8.21,27.33L578.34,191Z" transform="translate(-82.84 -14.63)"/></g></g></g><polygon class="cls-7" points="72.7 198.37 94.77 211.08 147.33 180.82 125.43 168.04 72.7 198.37"/><path class="cls-8" d="M210.06,92.48,161,120.76l16.66,9.59,35.21-28.68V94.07A1.84,1.84,0,0,0,210.06,92.48Z" transform="translate(-82.84 -14.63)"/><polygon class="cls-9" points="78.1 108.76 126.93 80.63 144.51 90.78 95.69 118.89 78.1 108.76"/><path class="cls-10" d="M228.69,102.36a2,2,0,0,0-2.13-.2l-48.95,28.19L161,120.76l49.1-28.28a1.8,1.8,0,0,1,1.59-.1h0s-1.71-.84-2.39-1.24a2,2,0,0,0-2.06-.15l-51.66,29.76v86.8l19.35-11.15v22.33l52.83-30.43a3.19,3.19,0,0,0,1.6-2.76L231,103.64S229.44,102.83,228.69,102.36Z" transform="translate(-82.84 -14.63)"/><polygon class="cls-11" points="94.77 118.84 72.7 106.13 72.7 192.93 94.77 205.64 94.77 118.84"/><polygon class="cls-12" points="91.77 123.52 74.76 113.72 74.76 120.36 91.77 130.16 91.77 123.52"/><polygon class="cls-12" points="91.77 132.29 74.76 122.49 74.76 124.79 91.77 134.59 91.77 132.29"/><polygon class="cls-12" points="91.77 136.56 74.76 126.77 74.76 129.06 91.77 138.86 91.77 136.56"/><polygon class="cls-12" points="91.77 194.35 74.76 184.55 74.76 186.85 91.77 196.65 91.77 194.35"/><path class="cls-13" d="M229.28,103.71l-51.66,29.76v86.8l52.83-30.43a3.19,3.19,0,0,0,1.6-2.76V105.31A1.84,1.84,0,0,0,229.28,103.71Z" transform="translate(-82.84 -14.63)"/><polygon class="cls-14" points="112.22 208.29 134.29 221 186.84 190.75 164.94 177.96 112.22 208.29"/><path class="cls-15" d="M249.58,98.85l-49.1,28.28,16.66,9.59L252.34,108v-7.59A1.84,1.84,0,0,0,249.58,98.85Z" transform="translate(-82.84 -14.63)"/><polygon class="cls-16" points="117.62 115.14 166.45 87.01 184.03 97.15 135.21 125.27 117.62 115.14"/><path class="cls-17" d="M268.2,108.74a2,2,0,0,0-2.13-.2l-48.95,28.19-16.66-9.59,49.1-28.28a1.8,1.8,0,0,1,1.59-.1h0s-1.71-.84-2.39-1.24a2,2,0,0,0-2.06-.15l-51.66,29.76v86.8l19.35-11.15v22.33l52.83-30.43a3.19,3.19,0,0,0,1.6-2.76L270.49,110S269,109.21,268.2,108.74Z" transform="translate(-82.84 -14.63)"/><polygon class="cls-18" points="134.29 125.21 112.22 112.5 112.22 199.3 134.29 212.01 134.29 125.21"/><polygon class="cls-6" points="131.29 129.9 114.27 120.1 114.27 126.74 131.29 136.54 131.29 129.9"/><polygon class="cls-6" points="131.29 138.66 114.27 128.87 114.27 131.16 131.29 140.96 131.29 138.66"/><polygon class="cls-6" points="131.29 142.94 114.27 133.14 114.27 135.44 131.29 145.24 131.29 142.94"/><polygon class="cls-6" points="131.29 200.72 114.27 190.92 114.27 193.22 131.29 203.02 131.29 200.72"/><path class="cls-15" d="M268.79,110.09l-51.66,29.76v86.8L270,196.22a3.19,3.19,0,0,0,1.6-2.76V111.68A1.84,1.84,0,0,0,268.79,110.09Z" transform="translate(-82.84 -14.63)"/><polygon class="cls-19" points="0 251.8 47.68 279.7 57.73 273.38 10.04 245.48 0 251.8"/><polygon class="cls-18" points="57.73 228.13 57.73 267.85 47.68 274.16 47.68 234.46 57.73 228.13"/><polygon class="cls-17" points="0 206.56 47.68 234.46 57.73 228.13 10.04 200.23 0 206.56"/><polygon class="cls-15" points="47.69 274.16 0.01 246.26 0.01 206.56 47.69 234.46 47.69 274.16"/><polygon class="cls-18" points="0 206.56 23.84 240.36 47.68 234.46 0 206.56"/><path class="cls-8" d="M121.45,228.9v7.82a1.36,1.36,0,0,1-1.3,1.34,1.25,1.25,0,0,1-1.3-1.27V229a2.09,2.09,0,0,0-1-1.8l-11.94-7a.82.82,0,0,0-.87,0,.65.65,0,0,0-.17.13l-.05,0a.9.9,0,0,0-.21.6v5.91a1.35,1.35,0,0,1-.82,1.22,1.19,1.19,0,0,1-.49.12,1.26,1.26,0,0,1-1.3-1.27V221a3.49,3.49,0,0,1,1.77-3.07,2.78,2.78,0,0,1,.85-.35,3.28,3.28,0,0,1,2.64.33l11.94,7A4.6,4.6,0,0,1,121.45,228.9Z" transform="translate(-82.84 -14.63)"/><polygon class="cls-20" points="26.54 238.88 26.54 242.94 25.64 243.5 25.64 239.45 26.54 238.88"/><polygon class="cls-21" points="20.78 236.6 25.64 239.45 26.54 238.88 21.68 236.04 20.78 236.6"/><polygon class="cls-12" points="25.64 243.5 20.78 240.66 20.78 236.6 25.64 239.45 25.64 243.5"/><path class="cls-22" d="M121.45,228.9v7.82a1.33,1.33,0,0,1-.85,1.24v-7.84c0-2.85-1.16-3.88-1.16-3.88L104.6,217.6a3.28,3.28,0,0,1,2.64.33l11.94,7A4.6,4.6,0,0,1,121.45,228.9Z" transform="translate(-82.84 -14.63)"/><path class="cls-22" d="M104.79,220.36a.9.9,0,0,0-.21.6v5.91a1.35,1.35,0,0,1-.82,1.22v-6A2.08,2.08,0,0,1,104.79,220.36Z" transform="translate(-82.84 -14.63)"/><path class="cls-23" d="M317.58,256.65,503.13,363.78,373.48,437.41a9.67,9.67,0,0,1-9.61,0L190.44,337.24a4.84,4.84,0,0,1,0-8.4Z" transform="translate(-82.84 -14.63)"/><path class="cls-15" d="M507.49,195.43V334.11l-4.35,2.42L321.93,227l-2.4-138.83s3-1.63,4.07-2.26a3.64,3.64,0,0,1,3.71-.07L502.65,187.06A9.67,9.67,0,0,1,507.49,195.43Z" transform="translate(-82.84 -14.63)"/><path class="cls-16" d="M503.13,197.85V336.53L317.58,229.4V91.34A3.59,3.59,0,0,1,323,88.24L498.3,189.47A9.67,9.67,0,0,1,503.13,197.85Z" transform="translate(-82.84 -14.63)"/><polygon class="cls-13" points="411.27 180.96 411.27 307.65 240.11 209.06 240.11 82.37 411.27 180.96"/><polygon class="cls-9" points="385.51 174.08 385.51 187.4 288.58 131.57 288.58 118.25 385.51 174.08"/><polygon class="cls-8" points="291.25 129.32 291.25 123.41 382.84 176.17 382.84 182.08 291.25 129.32"/><g id="_Group_10" data-name="&lt;Group&gt;"><path id="_Path_" data-name="&lt;Path&gt;" class="cls-24" d="M438.14,253.3l33.35,19.35c1.51.87,3.15.05,3.15-1.57v-39a2.85,2.85,0,0,0-1.43-2.38l-33.35-19.35c-1.51-.87-3.15-.06-3.15,1.57v39A2.85,2.85,0,0,0,438.14,253.3Z" transform="translate(-82.84 -14.63)"/><g class="cls-25"><line id="_Path_2" data-name="&lt;Path&gt;" class="cls-26" x1="389.27" y1="222.06" x2="356.38" y2="203.05"/><line id="_Path_3" data-name="&lt;Path&gt;" class="cls-26" x1="389.27" y1="226.17" x2="356.38" y2="207.16"/><line id="_Path_4" data-name="&lt;Path&gt;" class="cls-26" x1="389.27" y1="230.28" x2="356.38" y2="211.27"/><line id="_Path_5" data-name="&lt;Path&gt;" class="cls-26" x1="389.27" y1="234.39" x2="356.38" y2="215.37"/><line id="_Path_6" data-name="&lt;Path&gt;" class="cls-26" x1="389.27" y1="238.49" x2="356.38" y2="219.48"/><line id="_Path_7" data-name="&lt;Path&gt;" class="cls-26" x1="389.27" y1="242.6" x2="356.38" y2="223.59"/><line id="_Path_8" data-name="&lt;Path&gt;" class="cls-26" x1="389.27" y1="246.71" x2="356.38" y2="227.7"/><line id="_Path_9" data-name="&lt;Path&gt;" class="cls-26" x1="389.27" y1="250.82" x2="364.81" y2="236.68"/></g></g><path class="cls-15" d="M317.58,234.72,503.13,336.53v5.32L373.48,415.48a9.67,9.67,0,0,1-9.61,0L190.44,315.31a4.8,4.8,0,0,1-2.42-4.17c0-1.65,0-5.36,0-5.36Z" transform="translate(-82.84 -14.63)"/><path class="cls-27" d="M317.58,229.4,503.13,336.53,373.48,410.16a9.67,9.67,0,0,1-9.61,0L190.44,310a4.84,4.84,0,0,1,0-8.4Z" transform="translate(-82.84 -14.63)"/><polygon class="cls-28" points="168.43 270.9 238.5 231.11 391.8 319.61 321.72 359.41 168.43 270.9"/><path class="cls-29" d="M412.7,310.84l-6.37-3.68L414,302.8l6.37,3.68Zm30.84,21.36L309.86,255l-7.67,4.35,133.69,77.18Zm-31.4-30.47-6.37-3.68-7.67,4.35,6.37,3.68ZM403.91,297l-6.37-3.68-7.67,4.35,6.37,3.68Zm-74.05-42.76-9.25-5.34-7.67,4.35,9.25,5.34Zm107,61.76-6.37-3.68-7.67,4.35,6.37,3.68Zm8.23,4.75-6.37-3.68L431,321.41l6.37,3.68Zm-16.46-9.5-6.37-3.68-7.67,4.35,6.37,3.68Zm-82.28-47.51L339.94,260l-7.67,4.35,6.37,3.68Zm8.23,4.75-6.37-3.68-7.67,4.35,6.37,3.68Zm41.14,23.75-6.37-3.68-7.67,4.35,6.37,3.68Zm-64-36.93L324,259.65l6.37,3.68,7.67-4.35Zm31.06,17.93-6.37-3.68-7.67,4.35,6.37,3.68ZM371,278l-6.37-3.68L357,278.65l6.37,3.68Zm16.46,9.5-6.37-3.68-7.67,4.35,6.37,3.68Zm-8.23-4.75-6.37-3.68-7.67,4.35,6.37,3.68Zm75.09,43.35-7.41-4.28-7.67,4.35,7.41,4.28Zm-54,30.71-7.5,4.26,12.45,7.19,7.67-4.35-12.78-7.38ZM398.6,352l17.46,10.08,7.67-4.35-17.46-10.08ZM272.81,283l-6-3.45-7.67,4.35,6,3.45ZM404.36,343l22.45,13,7.67-4.35-22.45-13Zm-5.7,12.6-7.22-4.17-7.67,4.35L391,360Zm57.51-28.47-7.67,4.35,10.57,6.1,7.67-4.35Zm-18.44,10.47,10.58,6.11,7.67-4.35-10.58-6.11Zm-16.8,2.63,16.63,9.6,7.67-4.35-16.63-9.6ZM290.4,301.9l7.67-4.35L274.66,284,267,288.39Zm16.64.83-7.12-4.11L292.26,303l7.12,4.11Zm119.7,32.1L299.1,261.14l-7.67,4.35,127.64,73.69ZM404.4,346.61,277.59,273.39l-7.67,4.35L396.74,351Zm5.76-9L288.35,267.27l-7.67,4.35L402.5,342Zm-29.76,7.48-53.55-30.92-7.67,4.35,53.55,30.92ZM316,307.91l-7.12-4.11-7.67,4.35,7.12,4.11Zm73.57,42.47-7.33-4.23-7.67,4.35,7.33,4.23ZM325,313.09,317.87,309l-7.67,4.35,7.12,4.11Z" transform="translate(-82.84 -14.63)"/><path class="cls-30" d="M286.53,311.22l39.67,22.9a1.07,1.07,0,0,1,0,1.87l-22,12.49a3.24,3.24,0,0,1-3.22,0l-39.67-22.9a1.08,1.08,0,0,1,0-1.87l22-12.49A3.24,3.24,0,0,1,286.53,311.22Z" transform="translate(-82.84 -14.63)"/><path class="cls-15" d="M326.2,334.89,286.53,312a3.24,3.24,0,0,0-3.22,0l-22,12.49a1,1,0,0,0-.47.55,1.07,1.07,0,0,1,.47-1.32l22-12.49a3.24,3.24,0,0,1,3.22,0l39.67,22.9a1.07,1.07,0,0,1,.46,1.31A1,1,0,0,0,326.2,334.89Z" transform="translate(-82.84 -14.63)"/><line class="cls-31" x1="325.69" y1="126.71" x2="337.06" y2="133.28"/><path class="cls-15" d="M425.29,150.39c.27.6,0,1.08-.6,1.08a1.9,1.9,0,0,1-1.56-1.08c-.27-.6,0-1.08.6-1.08A1.9,1.9,0,0,1,425.29,150.39Z" transform="translate(-82.84 -14.63)"/><polygon class="cls-32" points="348.87 164.01 380.22 177.59 380.22 186.02 380.22 299.03 280.93 357.55 253.13 323.79 348.87 164.01"/><path class="cls-15" d="M388.33,310.79,423,331.13l.05-.44a7.66,7.66,0,0,1-3.18-6.31V319.3c0-3.62-1.74-9.77-4.29-11.54a10.09,10.09,0,0,0-1.39-.81l0,0a10.44,10.44,0,0,0-10.33.75C401.62,309.14,390.16,308.91,388.33,310.79Z" transform="translate(-82.84 -14.63)"/><path class="cls-6" d="M463.06,191.71l-87.34-50.36L359,150.92h0a10.27,10.27,0,0,0-5.36,9V261.65a18.1,18.1,0,0,1-2.24,8.68l-22.66-13.17a8.94,8.94,0,0,0-1.5-.86l0,0a10.34,10.34,0,0,0-4.75-1,10.71,10.71,0,0,0-5.49,1.77,36,36,0,0,0-16.49,30v.27a34.45,34.45,0,0,1-14.52,27.91l-20.46,14.58,86.91,50.55,20.46-14.58c9.08-6.48,14.87-17.24,14.53-27.91v-.26a35.46,35.46,0,0,1,4.06-16.4,36.41,36.41,0,0,1,12.42-13.64,10.44,10.44,0,0,1,10.33-.75l0,0a6.56,6.56,0,0,1,1.44,1c3.74,3.35,4.23,7.76,4.24,11.39v5.07a7.83,7.83,0,0,0,12.35,6.39h0c7.1-4.43,8.28-12.39,8.28-18.48V210.48a10.27,10.27,0,0,1,5.79-9.23v0Z" transform="translate(-82.84 -14.63)"/><path class="cls-33" d="M463.06,191.71l-87.34-50.36L359,150.92h0a10.27,10.27,0,0,0-5.36,9V261.65a18.1,18.1,0,0,1-2.24,8.68l-22.66-13.17a8.94,8.94,0,0,0-1.5-.86l0,0a10.34,10.34,0,0,0-4.75-1,10.71,10.71,0,0,0-5.49,1.77,36,36,0,0,0-16.49,30v.27a34.45,34.45,0,0,1-14.52,27.91l-20.46,14.58,86.91,50.55,20.46-14.58c9.08-6.48,14.87-17.24,14.53-27.91v-.26a35.46,35.46,0,0,1,4.06-16.4,36.41,36.41,0,0,1,12.42-13.64,10.44,10.44,0,0,1,10.33-.75l0,0a6.56,6.56,0,0,1,1.44,1c3.74,3.35,4.23,7.76,4.24,11.39v5.07a7.83,7.83,0,0,0,12.35,6.39h0c7.1-4.43,8.28-12.39,8.28-18.48V210.48a10.27,10.27,0,0,1,5.79-9.23v0Z" transform="translate(-82.84 -14.63)"/><path class="cls-6" d="M357.76,289.15l-4-2.31A7.79,7.79,0,0,0,357.76,289.15Z" transform="translate(-82.84 -14.63)"/><polygon class="cls-18" points="182.65 315.21 182.65 316.06 269.55 366.56 269.55 365.76 182.65 315.21"/><path class="cls-34" d="M418.32,299.95h0Z" transform="translate(-82.84 -14.63)"/><path class="cls-12" d="M409.88,236.73,437,252.46a.62.62,0,0,0,.91-.54v-32.6a1.6,1.6,0,0,0-.79-1.39L409.69,202a.49.49,0,0,0-.73.43v32.66A1.86,1.86,0,0,0,409.88,236.73Z" transform="translate(-82.84 -14.63)"/><path class="cls-35" d="M356,189.42l50.69,29.45a.28.28,0,0,0,.41-.24V216.8a.47.47,0,0,0-.23-.41l-50.71-29.46a.28.28,0,0,0-.42.25v1.76A.54.54,0,0,0,356,189.42Z" transform="translate(-82.84 -14.63)"/><path class="cls-36" d="M356,184.1l50.69,29.45a.28.28,0,0,0,.41-.24v-1.82a.47.47,0,0,0-.23-.41l-50.71-29.46a.28.28,0,0,0-.42.25v1.76A.54.54,0,0,0,356,184.1Z" transform="translate(-82.84 -14.63)"/><path class="cls-37" d="M356,194.73l50.69,29.45a.28.28,0,0,0,.41-.24v-1.82a.47.47,0,0,0-.23-.41l-50.71-29.46a.28.28,0,0,0-.42.25v1.76A.54.54,0,0,0,356,194.73Z" transform="translate(-82.84 -14.63)"/><path class="cls-38" d="M356,200.05l50.69,29.45a.28.28,0,0,0,.41-.24v-1.82a.47.47,0,0,0-.23-.41l-50.71-29.46a.28.28,0,0,0-.42.25v1.76A.54.54,0,0,0,356,200.05Z" transform="translate(-82.84 -14.63)"/><path class="cls-39" d="M356,205.37l50.69,29.45a.28.28,0,0,0,.41-.24v-1.82a.47.47,0,0,0-.23-.41l-50.71-29.46a.28.28,0,0,0-.42.25v1.76A.54.54,0,0,0,356,205.37Z" transform="translate(-82.84 -14.63)"/><path class="cls-40" d="M406.9,268.12l-15.34-8.88a.23.23,0,0,0-.34.2v1.83a.6.6,0,0,0,.3.52l15.2,8.81a.28.28,0,0,0,.41-.25v-1.82A.49.49,0,0,0,406.9,268.12Z" transform="translate(-82.84 -14.63)"/><path class="cls-41" d="M355.76,238.91v1.76a.55.55,0,0,0,.27.48l32.65,19a.29.29,0,0,0,.42-.25v-1.75a.58.58,0,0,0-.29-.5l-32.63-19A.28.28,0,0,0,355.76,238.91Z" transform="translate(-82.84 -14.63)"/><path class="cls-42" d="M356,235.83l54.12,31.46a.28.28,0,0,0,.41-.24v-1.82a.47.47,0,0,0-.23-.41l-54.15-31.48a.28.28,0,0,0-.42.25v1.76A.54.54,0,0,0,356,235.83Z" transform="translate(-82.84 -14.63)"/><path class="cls-43" d="M356,230.51,406.72,260a.28.28,0,0,0,.41-.24V257.9a.47.47,0,0,0-.23-.41L356.18,228a.28.28,0,0,0-.42.25V230A.54.54,0,0,0,356,230.51Z" transform="translate(-82.84 -14.63)"/><path class="cls-44" d="M356,225.19l50.69,29.45a.28.28,0,0,0,.41-.24v-1.82a.47.47,0,0,0-.23-.41l-50.71-29.46a.28.28,0,0,0-.42.25v1.76A.54.54,0,0,0,356,225.19Z" transform="translate(-82.84 -14.63)"/><path class="cls-45" d="M356,261.63l50.69,29.45a.28.28,0,0,0,.41-.24V289a.47.47,0,0,0-.23-.41l-50.71-29.46a.28.28,0,0,0-.42.25v1.76A.54.54,0,0,0,356,261.63Z" transform="translate(-82.84 -14.63)"/><path class="cls-46" d="M355.71,266.45l59.12,34.22c.22.13.29,0,.31-.1h0c0-.41,0-.82,0-1.24v-.69a.54.54,0,0,0-.17-.43l0,0L355.9,264a.26.26,0,0,0-.39.22c0,.48-.1,1-.18,1.43A.8.8,0,0,0,355.71,266.45Z" transform="translate(-82.84 -14.63)"/><path class="cls-47" d="M354.42,270.47l59.33,34.35a.45.45,0,0,0,.65-.26q.2-.65.35-1.31a.54.54,0,0,0-.25-.58l-59.41-34.38a.31.31,0,0,0-.44.18q-.21.63-.46,1.23A.61.61,0,0,0,354.42,270.47Z" transform="translate(-82.84 -14.63)"/><path class="cls-48" d="M356,256.31l50.69,29.45a.28.28,0,0,0,.41-.24V283.7a.47.47,0,0,0-.23-.41l-50.71-29.46a.28.28,0,0,0-.42.25v1.76A.54.54,0,0,0,356,256.31Z" transform="translate(-82.84 -14.63)"/><path class="cls-49" d="M356,251l50.69,29.45a.28.28,0,0,0,.41-.24v-1.82a.47.47,0,0,0-.23-.41l-50.71-29.46a.28.28,0,0,0-.42.25v1.76A.54.54,0,0,0,356,251Z" transform="translate(-82.84 -14.63)"/><path class="cls-50" d="M406.9,272.66,386,260.55a.19.19,0,0,0-.28.16v2a.37.37,0,0,0,.18.32l20.82,12.07a.27.27,0,0,0,.41-.24v-1.82A.47.47,0,0,0,406.9,272.66Z" transform="translate(-82.84 -14.63)"/><path class="cls-51" d="M355.76,243.44v1.77a.55.55,0,0,0,.27.47l27.21,15.84a.23.23,0,0,0,.35-.21v-1.94a.39.39,0,0,0-.19-.34l-27.21-15.84A.29.29,0,0,0,355.76,243.44Z" transform="translate(-82.84 -14.63)"/><path class="cls-52" d="M412.44,273.83l24.51,14.25a.28.28,0,0,0,.41-.24V286a.47.47,0,0,0-.23-.41l-24.54-14.26a.28.28,0,0,0-.42.25v1.76A.54.54,0,0,0,412.44,273.83Z" transform="translate(-82.84 -14.63)"/><path class="cls-53" d="M412.44,268.51l24.51,14.25a.28.28,0,0,0,.41-.24V280.7a.47.47,0,0,0-.23-.41L412.59,266a.28.28,0,0,0-.42.25V268A.54.54,0,0,0,412.44,268.51Z" transform="translate(-82.84 -14.63)"/><path class="cls-54" d="M412.44,263.82l24.51,14.25a.28.28,0,0,0,.41-.24v-8.58a.47.47,0,0,0-.23-.41l-24.54-14.26a.28.28,0,0,0-.42.25v8.52A.54.54,0,0,0,412.44,263.82Z" transform="translate(-82.84 -14.63)"/><path class="cls-55" d="M412.44,294.32l21.16,12.31a.28.28,0,0,0,.41-.24v-1.82a.47.47,0,0,0-.23-.41l-21.18-12.33a.28.28,0,0,0-.42.25v1.76A.54.54,0,0,0,412.44,294.32Z" transform="translate(-82.84 -14.63)"/><path class="cls-56" d="M412.44,289l24.51,14.25a.28.28,0,0,0,.41-.24v-1.82a.47.47,0,0,0-.23-.41l-24.54-14.26a.28.28,0,0,0-.42.25v1.76A.54.54,0,0,0,412.44,289Z" transform="translate(-82.84 -14.63)"/><path class="cls-57" d="M412.44,283.68l24.51,14.25a.28.28,0,0,0,.41-.24v-1.82a.47.47,0,0,0-.23-.41L412.59,281.2a.28.28,0,0,0-.42.25v1.76A.54.54,0,0,0,412.44,283.68Z" transform="translate(-82.84 -14.63)"/><path class="cls-58" d="M412.44,278.36l24.51,14.25a.28.28,0,0,0,.41-.24v-1.82a.47.47,0,0,0-.23-.41l-24.54-14.26a.28.28,0,0,0-.42.25v1.76A.54.54,0,0,0,412.44,278.36Z" transform="translate(-82.84 -14.63)"/><path class="cls-59" d="M355.76,211.72v1.77a.55.55,0,0,0,.27.47l45.19,26.33a.37.37,0,0,0,.54-.32V238.4a.65.65,0,0,0-.32-.57l-45.26-26.37A.29.29,0,0,0,355.76,211.72Z" transform="translate(-82.84 -14.63)"/><path class="cls-60" d="M356,219.76l81.46,47.42a.28.28,0,0,0,.41-.24v-1.82a.47.47,0,0,0-.23-.41l-81.48-47.43a.28.28,0,0,0-.42.25v1.76A.54.54,0,0,0,356,219.76Z" transform="translate(-82.84 -14.63)"/><path class="cls-61" d="M415.84,308c2.38,1.79,4.05,7.74,4.07,11.23v3a.34.34,0,0,0,.17.31l9.81,5.66a.39.39,0,0,0,.4,0,18.45,18.45,0,0,0,3.89-3.64,16.17,16.17,0,0,0,1.15-1.6l0,0c2.18-3.71,2.26-12,1.77-12.25l-18.2-10.56a1,1,0,0,0-.52-.17c-.22,0-.44.09-.49.69,0,0,0,.06,0,.09h0A18.49,18.49,0,0,1,415.84,308Z" transform="translate(-82.84 -14.63)"/><path class="cls-62" d="M419.91,323.85v.44a7.86,7.86,0,0,0,.09,1.21l6.34,3.59a2.49,2.49,0,0,0,2.22.09l.4-.18Z" transform="translate(-82.84 -14.63)"/><path class="cls-63" d="M351.4,306.37l33.3,19.42a1.16,1.16,0,0,0,1.68-.68,36.12,36.12,0,0,1,15.05-20.17,11,11,0,0,1,2.78-1.31.61.61,0,0,0,.14-1.1l-5.29-3.09L380.85,288.8l-9.28-5.42a3.28,3.28,0,0,0-2.36-.39,10.76,10.76,0,0,0-3.56,1.51,36.45,36.45,0,0,0-12.42,13.64,35.49,35.49,0,0,0-2.58,6.34A1.64,1.64,0,0,0,351.4,306.37Z" transform="translate(-82.84 -14.63)"/><path class="cls-64" d="M320.31,259.19l31.45,18.33L362,283.46a.6.6,0,0,0,.61,0l.59-.39a8.13,8.13,0,0,1,1-.58l0,0c.14-.08,0-.17,0-.21l0,0-12.58-7.32L322.69,258a10.43,10.43,0,0,0-2.29,1.13Z" transform="translate(-82.84 -14.63)"/><path class="cls-65" d="M316.66,261.93a.32.32,0,0,0,0,.51l35.18,20.5,6.14,3.57a.62.62,0,0,0,.73-.08l.74-.64a.62.62,0,0,0-.06-1l-7.67-4.46-33.24-19.38a.63.63,0,0,0-.7.05Q317.22,261.44,316.66,261.93Z" transform="translate(-82.84 -14.63)"/><path class="cls-66" d="M313.59,266l41,23.89a.71.71,0,0,0,.89-.16l.7-.78a.49.49,0,0,0-.1-.77l-2.32-1.34L315,264.23a.75.75,0,0,0-.91.13l-.61.64A.65.65,0,0,0,313.59,266Z" transform="translate(-82.84 -14.63)"/><path class="cls-67" d="M310.51,269.56l41.26,24a.72.72,0,0,0,1-.24l.52-.76a.56.56,0,0,0-.16-.81l-41.18-24a.72.72,0,0,0-.93.2q-.31.42-.61.86A.49.49,0,0,0,310.51,269.56Z" transform="translate(-82.84 -14.63)"/><path class="cls-68" d="M308,273.45l0,0,41.51,24.18a.66.66,0,0,0,.9-.29c.1-.22.23-.45.34-.67l.16-.29a.42.42,0,0,0-.1-.57l0,0L309,271.49a.29.29,0,0,0-.39.1c-.27.45-.53.92-.76,1.39a.05.05,0,0,0,0,0A.37.37,0,0,0,308,273.45Z" transform="translate(-82.84 -14.63)"/><path class="cls-69" d="M306.08,277.7l42.06,24.5a.23.23,0,0,0,.34-.14q.27-.82.58-1.62a.28.28,0,0,0-.12-.35l-42-24.46a.27.27,0,0,0-.39.14c-.22.53-.42,1.06-.62,1.6A.27.27,0,0,0,306.08,277.7Z" transform="translate(-82.84 -14.63)"/><path class="cls-70" d="M304.15,285.21a.73.73,0,0,0,.36.72l80.07,46.56a.27.27,0,0,0,.41-.24v-1.82a.46.46,0,0,0-.23-.41l-79.9-46.47a.35.35,0,0,0-.52.25C304.27,284.28,304.2,284.75,304.15,285.21Z" transform="translate(-82.84 -14.63)"/><path class="cls-71" d="M303.85,291.62a.58.58,0,0,0,.28.54l80.45,46.79a.22.22,0,0,0,.15,0,.28.28,0,0,0,.26-.28v-1.82a.45.45,0,0,0-.07-.24.43.43,0,0,0-.16-.17L304.4,289.75a.33.33,0,0,0-.48.28Q303.91,290.83,303.85,291.62Z" transform="translate(-82.84 -14.63)"/><path class="cls-72" d="M303,297.41a.62.62,0,0,0,.28.69l79.89,46.45a.36.36,0,0,0,.52-.21c.14-.48.27-1,.38-1.45a.47.47,0,0,0-.22-.51l-80-46.53a.37.37,0,0,0-.55.26Q303.12,296.76,303,297.41Z" transform="translate(-82.84 -14.63)"/><path class="cls-73" d="M301.19,302.68a.65.65,0,0,0,.26.83l79.67,46.34a.35.35,0,0,0,.48-.16c.22-.42.41-.86.6-1.29a.48.48,0,0,0-.2-.61l-79.77-46.39a.42.42,0,0,0-.6.23Q301.42,302.15,301.19,302.68Z" transform="translate(-82.84 -14.63)"/><path class="cls-74" d="M298.52,307.74a.42.42,0,0,0,.13.59l79.65,46.32a.37.37,0,0,0,.48-.12c.28-.4.55-.81.82-1.21a.39.39,0,0,0-.12-.54l-79.65-46.33a.47.47,0,0,0-.64.18Q298.87,307.19,298.52,307.74Z" transform="translate(-82.84 -14.63)"/><path class="cls-75" d="M295.14,312.2a.39.39,0,0,0,.08.6L374.67,359a.41.41,0,0,0,.48-.07c.35-.36.69-.73,1-1.1a.39.39,0,0,0-.09-.59L296.7,311.07a.56.56,0,0,0-.71.14Q295.57,311.71,295.14,312.2Z" transform="translate(-82.84 -14.63)"/><path class="cls-76" d="M333.15,340.63a.43.43,0,0,0,0,.7l37,21.52a.42.42,0,0,0,.45,0c.44-.33.87-.65,1.31-1a.33.33,0,0,0,0-.54l-37.08-21.55a.62.62,0,0,0-.72.08Q333.65,340.23,333.15,340.63Z" transform="translate(-82.84 -14.63)"/><path class="cls-15" d="M446.33,201.28a10.25,10.25,0,0,0-5.79,9.2V312.21c0,9.51-3.13,15.06-8.29,18.48a7.83,7.83,0,0,1-12.35-6.39v-5.07c0-3.42-.43-7.08-2.76-9.76a9.87,9.87,0,0,0-8.19-3.47,15.08,15.08,0,0,0-7.29,3.22A34.57,34.57,0,0,0,388.5,329.5c-1.43,6.59-.91,13.58-3.11,20-2.51,7.31-8.3,13-14.45,17.67-3.79,2.87-18.55,13.26-18.55,13.26l.06.67s12.06-8.39,18-12.73,12-10,14.89-16.74c3.64-8.47,2.18-17.88,5.14-26.61a31.76,31.76,0,0,1,12.84-16c2.63-1.7,5.52-3.13,8.54-2.32a9.25,9.25,0,0,1,5.64,5.22c1.65,3.53,1.79,7.25,1.86,11,.05,2.93.4,5.9,2.92,7.79,4.57,3.42,7.83,1.91,10.11.71.73-.38,3.06-1.58,5.83-6,3.28-5.21,2.85-14.31,2.85-14.31s.16-99.44.16-100.71a9.73,9.73,0,0,1,5.12-8.5l16.72-9.66v-.53Z" transform="translate(-82.84 -14.63)"/><text class="cls-77" transform="matrix(1, 0.58, 0, 1, 275.95, 163.31)">P<tspan class="cls-78" x="5.68" y="0">R</tspan><tspan x="11.46" y="0">OFILE</tspan></text><path class="cls-6" d="M418.37,218.74c0,2.48,2,5.65,4.5,7.08s4.5.57,4.5-1.91-2-5.65-4.5-7.08S418.37,216.25,418.37,218.74Z" transform="translate(-82.84 -14.63)"/><path class="cls-6" d="M412.69,231.23,433,242.93c0-5.61-4.55-12.75-10.18-16-2.8-1.61-5.35-1.94-7.19-1.16S412.69,228.43,412.69,231.23Z" transform="translate(-82.84 -14.63)"/><polygon class="cls-12" points="330.09 226.28 331.06 228.79 333.21 230.35 331.65 230.97 332.02 233.33 330.09 231.2 328.16 231.1 328.53 229.17 326.97 226.75 329.13 227.68 330.09 226.28"/><polygon class="cls-12" points="338.47 231.14 339.43 233.65 341.59 235.21 340.03 235.83 340.39 238.19 338.47 236.06 336.54 235.96 336.91 234.03 335.35 231.61 337.5 232.54 338.47 231.14"/><polygon class="cls-12" points="346.84 236 347.81 238.51 349.96 240.07 348.4 240.69 348.77 243.05 346.84 240.92 344.91 240.82 345.28 238.89 343.72 236.47 345.88 237.4 346.84 236"/><g id="_Group_11" data-name="&lt;Group&gt;" class="cls-79"><path class="cls-80" d="M418.56,103.38a1.9,1.9,0,0,1-.62-.23L381.09,82a2.87,2.87,0,0,1-1.46-2.42v-33a1.39,1.39,0,0,1,.75-1.28,1.69,1.69,0,0,1,1.58.11l36.8,21.17a2.87,2.87,0,0,1,1.46,2.42V102a1.35,1.35,0,0,1-.73,1.25A1.49,1.49,0,0,1,418.56,103.38Z" transform="translate(-82.84 -14.63)"/></g><polygon class="cls-12" points="316.42 49.33 319.24 56.66 325.53 61.21 320.98 63.02 322.05 69.91 316.42 63.7 310.79 63.41 311.87 57.76 307.31 50.69 313.61 53.41 316.42 49.33"/><path class="cls-81" d="M484.62,153.17c.95,2.13,0,3.86-2.14,3.86a6.77,6.77,0,0,1-5.57-3.86c-.95-2.13,0-3.86,2.14-3.86A6.77,6.77,0,0,1,484.62,153.17Z" transform="translate(-82.84 -14.63)"/><path class="cls-81" d="M554.87,324c.95,2.13,0,3.86-2.14,3.86a6.77,6.77,0,0,1-5.57-3.86c-.95-2.13,0-3.86,2.14-3.86A6.77,6.77,0,0,1,554.87,324Z" transform="translate(-82.84 -14.63)"/><path class="cls-81" d="M305.09,91.7c.95,2.13,0,3.86-2.14,3.86a6.77,6.77,0,0,1-5.57-3.86c-.95-2.13,0-3.86,2.14-3.86A6.77,6.77,0,0,1,305.09,91.7Z" transform="translate(-82.84 -14.63)"/><line class="cls-82" x1="493.49" y1="73.55" x2="493.49" y2="80.6"/><line class="cls-82" x1="496.79" y1="78.76" x2="490.18" y2="74.96"/><line class="cls-82" x1="431.38" y1="109.51" x2="431.38" y2="116.56"/><line class="cls-82" x1="434.68" y1="114.72" x2="428.07" y2="110.91"/><line class="cls-82" x1="463.89" y1="16.39" x2="463.89" y2="23.44"/><line class="cls-82" x1="467.19" y1="21.6" x2="460.58" y2="17.8"/><line class="cls-82" x1="564.72" y1="294.37" x2="564.72" y2="301.42"/><line class="cls-82" x1="568.03" y1="299.58" x2="561.42" y2="295.78"/><line class="cls-82" x1="533.37" y1="238.5" x2="533.37" y2="245.55"/><line class="cls-82" x1="536.67" y1="243.71" x2="530.06" y2="239.9"/><path class="cls-83" d="M606.52,384.75l67.26,38.83a4,4,0,0,1,0,6.87l-99.5,57.44a11.81,11.81,0,0,1-11.74,0L494.68,449.4a4,4,0,0,1,0-6.89l100.05-57.77A11.81,11.81,0,0,1,606.52,384.75Z" transform="translate(-82.84 -14.63)"/><path class="cls-15" d="M606.53,366.74l69.24,39.55s0,1.38,0,2.72a3.93,3.93,0,0,1-2,3.44l-99.5,57.44a11.81,11.81,0,0,1-11.74,0l-67.86-38.54a3.93,3.93,0,0,1-2-3.35c0-1.37,0-2.79,0-2.79l102-58.51A11.81,11.81,0,0,1,606.53,366.74Z" transform="translate(-82.84 -14.63)"/><path class="cls-16" d="M606.52,364l67.26,38.83a4,4,0,0,1,0,6.87l-99.5,57.44a11.81,11.81,0,0,1-11.74,0l-67.86-38.54a4,4,0,0,1,0-6.89L594.71,364A11.81,11.81,0,0,1,606.52,364Z" transform="translate(-82.84 -14.63)"/><polygon class="cls-13" points="515.62 355 580.5 392.46 489.23 445.15 423.81 408.01 515.62 355"/><path class="cls-84" d="M554.61,400.22c17.89-4.79,41.59.51,52.94,11.86s6,24.43-11.86,29.22-41.59-.51-52.94-11.86S536.71,405,554.61,400.22Z" transform="translate(-82.84 -14.63)"/><path class="cls-85" d="M561.34,407c12-3.22,28,.35,35.58,8s4.06,16.42-8,19.64-28-.35-35.58-8S549.32,410.18,561.34,407Z" transform="translate(-82.84 -14.63)"/><path class="cls-86" d="M566.5,412.11c7.53-2,17.52.22,22.29,5s2.54,10.29-5,12.31-17.52-.22-22.29-5S559,414.13,566.5,412.11Z" transform="translate(-82.84 -14.63)"/><polygon class="cls-12" points="485.14 399.01 491.94 402.19 498.25 400.62 497.53 405.49 503.21 409.7 495.96 409.54 493.17 413.72 489.41 408.74 482 407.11 486.93 404.2 485.14 399.01"/><path class="cls-87" d="M528.11,450.38v-2.72L543,438.48a1.89,1.89,0,0,0,.42-.27,2.53,2.53,0,0,0,.82-1.12,3.64,3.64,0,0,0,.19-1.56l5-3.13.25-.15a1.37,1.37,0,0,0,.19-.21,26.77,26.77,0,0,0,11,1.89c9.62-.29,17.34-5,17.62-10.56h0v-.49h0l-.1-3.11v-.14c-.27-5.76-8.39-10.16-18.22-9.87s-17.78,5.24-17.62,11l.1,3.14a7.92,7.92,0,0,0,3.29,5.84l-3.78,2.36a2.76,2.76,0,0,0-1.49-.29,2.56,2.56,0,0,0-.77.21l-.12.07-.15.1-.05,0-.05,0-18.5,11.37v2.72Z" transform="translate(-82.84 -14.63)"/><path class="cls-15" d="M540.64,412a6.62,6.62,0,0,0,.25,1.63c1.5,5.23,9.38,9,18.74,8.77s17-4.55,18.19-9.86c.12-.54.16-5,.16-5s-4.9-9.76-19-9.57c-8.53.12-18.35,10.67-18.35,10.67S540.6,410.91,540.64,412Zm3-.09a6.15,6.15,0,0,1,1.23-3.76c2.34-3.31,7.8-5.72,14.21-5.91s12,1.91,14.54,5.07a6.15,6.15,0,0,1,1.44,3.68c.15,5.09-6.76,7.06-15.44,7.32S543.75,417,543.6,411.87Z" transform="translate(-82.84 -14.63)"/><ellipse class="cls-88" cx="559.25" cy="408.13" rx="16.37" ry="9.41" transform="translate(-94.6 1.99) rotate(-1.69)"/><path class="cls-89" d="M549.83,400.55c16.3.36,21.2,8.38,22.56,12.92,2.08-1.64,3.28-3.67,3.21-5.82-.16-5.19-7.56-9-16.6-8.74A27.26,27.26,0,0,0,549.83,400.55Z" transform="translate(-82.84 -14.63)"/><path class="cls-90" d="M544.5,408.82c.13,4.6,6.73,8.13,14.73,7.9s14.37-4.15,14.24-8.75c0-.13,0-.26,0-.4-.45,4.31-6.58,7.87-14.21,8.1s-14.2-3.09-14.7-7.48A3.78,3.78,0,0,0,544.5,408.82Z" transform="translate(-82.84 -14.63)"/><path class="cls-15" d="M542.29,405.38l4.24-4.4,12.23-3,12.38,2.3,4.49,4.15,1.17,2.59-1.77.62s-2.09-8.41-16.22-8-15.72,8.94-15.72,8.94l-1.81-.52Z" transform="translate(-82.84 -14.63)"/><path class="cls-91" d="M540.64,408.62a6.62,6.62,0,0,0,.25,1.63c1.5,5.23,9.38,9,18.74,8.77s17-4.55,18.19-9.86a6.61,6.61,0,0,0,.16-1.64c-.18-6.05-8.68-10.71-19-10.41S540.46,402.57,540.64,408.62Zm3-.09a6.15,6.15,0,0,1,1.23-3.76c2.34-3.31,7.8-5.72,14.21-5.91s12,1.91,14.54,5.07A6.15,6.15,0,0,1,575,407.6c.15,5.09-6.76,9.42-15.44,9.67S543.75,413.62,543.6,408.53Z" transform="translate(-82.84 -14.63)"/><path class="cls-6" d="M540.64,408.62a6.62,6.62,0,0,0,.25,1.63c1.5,5.23,9.38,9,18.74,8.77s17-4.55,18.19-9.86a6.61,6.61,0,0,0,.16-1.64c-.18-6.05-8.68-10.71-19-10.41S540.46,402.57,540.64,408.62Zm3-.09a6.15,6.15,0,0,1,1.23-3.76c2.34-3.31,7.8-5.72,14.21-5.91s12,1.91,14.54,5.07A6.15,6.15,0,0,1,575,407.6c.15,5.09-6.76,9.42-15.44,9.67S543.75,413.62,543.6,408.53Z" transform="translate(-82.84 -14.63)"/><path class="cls-92" d="M538.4,421.57l.36.53h0l1.6,2.37.41.61,7-4.38h0a1.26,1.26,0,0,0,.25-.16,1.53,1.53,0,0,0,.49-.67,1.89,1.89,0,0,0,.11-.43h0a2.48,2.48,0,0,0-.23-1.39,2.38,2.38,0,0,0-1.2-1.19,1.62,1.62,0,0,0-.8-.12,1.34,1.34,0,0,0-.46.13l-.07,0-.1.06,0,0Z" transform="translate(-82.84 -14.63)"/><path class="cls-6" d="M538.4,421.57l.36.53h0l8.45-5.24a1.62,1.62,0,0,0-.8-.12,1.34,1.34,0,0,0-.46.13l-.07,0-.1.06,0,0Z" transform="translate(-82.84 -14.63)"/><path class="cls-15" d="M540.36,424.47l.41.61,7-4.38h0a1.26,1.26,0,0,0,.25-.16,1.53,1.53,0,0,0,.49-.67,1.89,1.89,0,0,0,.11-.43Z" transform="translate(-82.84 -14.63)"/><path class="cls-93" d="M516.05,433.83l1,1.8,2.62,4.62L541.06,427h0a2.19,2.19,0,0,0,.44-.28,2.63,2.63,0,0,0,.85-1.17,4.09,4.09,0,0,0-.21-3.18,4.53,4.53,0,0,0-.72-1.08h0a3.33,3.33,0,0,0-2.76-1.2,2.3,2.3,0,0,0-.79.22l-.13.07-.16.1-.06,0,0,0Z" transform="translate(-82.84 -14.63)"/><path class="cls-94" d="M516.05,433.83l1,1.8,2.57-.77,21.78-13.52h0a3.33,3.33,0,0,0-2.76-1.2,2.3,2.3,0,0,0-.79.22l-.13.07-.16.1-.06,0,0,0Z" transform="translate(-82.84 -14.63)"/><path class="cls-95" d="M515,438.45c.89,1.85,2.79,2.77,4.27,2.07h0a2.21,2.21,0,0,0,.44-.28,2.66,2.66,0,0,0,.85-1.17,4.08,4.08,0,0,0-.21-3.18,3.68,3.68,0,0,0-3.48-2.29,2.33,2.33,0,0,0-.79.22l-.13.07-.17.11-.06,0A3.54,3.54,0,0,0,515,438.45Z" transform="translate(-82.84 -14.63)"/><path class="cls-6" d="M578,390.91l21.28,12.24c6.77-5.17,5.62-9.24,1-12.39C593.07,385.81,584.77,387,578,390.91Z" transform="translate(-82.84 -14.63)"/><g class="cls-96"><path class="cls-15" d="M622.67,416.92a.65.65,0,0,1-.33-.09l-20.89-12.18a.65.65,0,1,1,.65-1.13L623,415.7a.65.65,0,0,1-.33,1.22Z" transform="translate(-82.84 -14.63)"/><path class="cls-15" d="M625.06,415.54a.65.65,0,0,1-.33-.09l-20.89-12.18a.65.65,0,1,1,.65-1.13l20.89,12.18a.65.65,0,0,1-.33,1.22Z" transform="translate(-82.84 -14.63)"/><path class="cls-15" d="M627.45,414.17a.65.65,0,0,1-.33-.09L606.23,401.9a.65.65,0,0,1,.65-1.13L627.78,413a.65.65,0,0,1-.33,1.22Z" transform="translate(-82.84 -14.63)"/><path class="cls-15" d="M629.84,412.8a.65.65,0,0,1-.33-.09l-20.89-12.18a.65.65,0,0,1,.65-1.13l20.89,12.18a.65.65,0,0,1-.33,1.22Z" transform="translate(-82.84 -14.63)"/><path class="cls-15" d="M632.23,411.43a.65.65,0,0,1-.33-.09L611,399.16a.65.65,0,1,1,.65-1.13l20.89,12.18a.65.65,0,0,1-.33,1.22Z" transform="translate(-82.84 -14.63)"/></g><path class="cls-6" d="M608.27,382.06a7.82,7.82,0,0,0-8.43,1.34c-2,2-1.44,4.72,1.22,6a7.82,7.82,0,0,0,8.43-1.34C611.48,386,610.94,383.34,608.27,382.06Z" transform="translate(-82.84 -14.63)"/><polygon class="cls-21" points="448.19 274.69 448.19 317.18 445.31 318.74 405.72 288.98 399.54 249.89 402.42 248.33 448.19 274.69"/><polygon class="cls-20" points="448.19 274.69 448.19 317.18 445.31 318.74 405.72 288.98 445.31 276.26 448.19 274.69"/><polygon class="cls-12" points="445.31 276.26 445.31 318.74 399.54 292.38 399.54 249.89 445.31 276.26"/><polygon class="cls-6" points="405.23 263.89 405.23 267.43 421.77 285.97 438.35 286.37 438.35 282.84 405.23 263.89"/><polygon class="cls-6" points="421.77 288.03 405.23 269.49 405.23 287.6 438.35 306.56 438.35 288.43 421.77 288.03"/><polygon class="cls-21" points="245.17 136.97 245.17 166.89 241.99 168.66 214.11 147.7 209.76 120.17 212.94 118.41 245.17 136.97"/><polygon class="cls-20" points="245.17 136.97 245.17 166.89 241.99 168.66 214.11 147.7 241.99 138.74 245.17 136.97"/><polygon class="cls-12" points="241.99 138.74 241.99 168.66 209.76 150.09 209.76 120.17 241.99 138.74"/><polyline class="cls-97" points="217.86 141.21 222.22 149.85 234.79 140.65"/><path class="cls-98" d="M196.59,321s3.86.7,4.71,0,4.56-4.22,5.07-4.74,7.84-2.3,8.45-2.3,3.24.28,3.19.66-4.64,4.69-5.16,5.11-2.18,1.8-2.45,2.63-2.66,3.7-4.4,3.8a14,14,0,0,1-2.13-.12l-8.57,1.22" transform="translate(-82.84 -14.63)"/><path class="cls-99" d="M221.73,307.73a11.47,11.47,0,0,1-2.57,2.08,6.17,6.17,0,0,1-1.36.25c-.78.11-4.37.74-6,1.72a16.08,16.08,0,0,0-3.52,4.08.51.51,0,0,0-.06.25.41.41,0,0,0,.15.24c.84.77,2-.06,2.57-.68.35-.35,1.53-1.32,1.7-1,.2,1.5-1,4.5-1.93,5.5-1.2,1.35-4.56,2.84-4,3.5.23.26.9.46,2.17.17,1.51,0,3.57,0,4.87-.85a17.68,17.68,0,0,0,3.72-3.68c.8-.89,1.43-2.06,2.57-3.19a40.93,40.93,0,0,1,4.13-2.72Z" transform="translate(-82.84 -14.63)"/><path class="cls-6" d="M229.27,236c-7.39.67-9.46,4.35-10.75,7-2.56,5.35-1.31,12.94-1.21,16,.32,11,1.41,21.93,2.5,32.87l2.08,21a3.56,3.56,0,0,0,.3,1.31c.64,1.22,2.52,1.25,3.6.4a6.89,6.89,0,0,0,2-3.56c1.74-5.68,3.13-11.58,2.75-17.51-.39-6.17-2.66-12.05-3.72-18.14-1.39-8-.65-16.4-3.07-24.17" transform="translate(-82.84 -14.63)"/><path class="cls-100" d="M227.17,256.55c.4,1.85-7-1.86-6.67,0,.29,1.62,1.66,23,2,25.55.48,4.32-1.07,10-.7,14.38A31.81,31.81,0,0,0,223,303.7a3.15,3.15,0,0,0,1.62,2.17,2.27,2.27,0,0,0,1.34,0c1.86-.49,2.93-2.38,3.79-4.09" transform="translate(-82.84 -14.63)"/><path class="cls-101" d="M272.31,413c-4.94-10.25-16.51-16.42-26.49-20.76a56.21,56.21,0,0,0-15.25-3.93c-5.14-.65-10.74-.69-15,2.21s-6.14,9.73-2.43,13.34c1.69,1.64,4.09,2.28,6.15,3.42,4.08,2.27,6.67,6.42,9.45,10.17,3.88,5.26,8.5,10.08,14.15,13.38s12.4,5,18.82,3.75c4.1-.78,8.11-2.84,10.4-6.32C275,423.79,274.62,417.77,272.31,413Z" transform="translate(-82.84 -14.63)"/><path class="cls-102" d="M264.28,405.83s-.53,2.09-.83,3.85-.4,4-.6,5.88a25.26,25.26,0,0,1-2.74,7.42,7.22,7.22,0,0,1-3.9,2.77,12.59,12.59,0,0,1-6-.12,2.9,2.9,0,0,1-1.54-1.53" transform="translate(-82.84 -14.63)"/><path class="cls-102" d="M218.34,399c0,1.16,1.73,2,3.5,2.11a17.76,17.76,0,0,0,5.75-.8,28.53,28.53,0,0,0,4.46-1.68,5.74,5.74,0,0,1,3.27-.29s0,.19,0,.41a15.05,15.05,0,0,0,8-1.34h0s0-.92,0-1.7-.16-1.67-.16-1.67l-24.82,4.14Z" transform="translate(-82.84 -14.63)"/><path class="cls-103" d="M248,422.12c0,.22.06.43.1.64a3.12,3.12,0,0,0,2.14,2.51c2.33.8,6.64.37,8.77-1.93s3.63-8.25,3.63-11.8a15.81,15.81,0,0,1,1.86-6.84h-9.66a2.37,2.37,0,0,0-.23.31c-1.67,2.33-6,11.19-6.42,14.06A13.61,13.61,0,0,0,248,422.12Z" transform="translate(-82.84 -14.63)"/><path class="cls-104" d="M248,422.12a.48.48,0,0,0,.1-.24c.42-2.31,2.63-6.75,3.8-9.09s3.36-6.61,3.36-6.61l-.65-1.16c-1.67,2.33-6,11.19-6.42,14.06A13.61,13.61,0,0,0,248,422.12Z" transform="translate(-82.84 -14.63)"/><path class="cls-105" d="M248.08,422.75a3.12,3.12,0,0,0,2.14,2.51c2.33.8,6.64.37,8.77-1.93s3.63-8.25,3.63-11.8a15.81,15.81,0,0,1,1.86-6.84h-3.92l-.31,2s-.11,8.25-2.06,12.33a7.9,7.9,0,0,1-7.1,4.83c-1.56-.11-2.55-.31-3-1.14A0,0,0,0,0,248.08,422.75Z" transform="translate(-82.84 -14.63)"/><path class="cls-103" d="M218.34,398.64a1.53,1.53,0,0,0,.87,1.24c1.62.74,5,.5,7.08,0s5.91-2.32,7.93-2.54,6-.57,7-.85a2.81,2.81,0,0,0,2.25-2.74,6.14,6.14,0,0,0-.75-3.49l-1.59.1-9.4.6h-.22l-4.79,1.71c-1.53.53-4.73,1-6.84,3a6.45,6.45,0,0,0-.85.94h0A2.88,2.88,0,0,0,218.34,398.64Z" transform="translate(-82.84 -14.63)"/><path class="cls-104" d="M219,396.62c1.53-1.32,4.75-2.29,7.37-3s5.22-1.51,5.22-1.51.06-.51.11-1.17h-.22l-4.79,1.71c-1.53.53-4.73,1-6.84,3A6.45,6.45,0,0,0,219,396.62Z" transform="translate(-82.84 -14.63)"/><path class="cls-105" d="M218.34,398.64a1.53,1.53,0,0,0,.87,1.24c1.62.74,5,.5,7.08,0s5.91-2.32,7.93-2.54,6-.57,7-.85a2.81,2.81,0,0,0,2.25-2.74,6.14,6.14,0,0,0-.75-3.49l-1.59.1,0,.51s1.47,2,.5,3.59-4.64,1.32-6.87,1.58-5.43,2.08-8.53,2.61-6.8,1-7.89,0Z" transform="translate(-82.84 -14.63)"/><path class="cls-94" d="M225.56,339.7c.39,1.57.7,3.1,1,4.58a.39.39,0,0,1,0,.08c.25,1.45.46,2.84.65,4.14,0,0,0,.08,0,.13s.06.37.11.71.1.66.14,1c.41,2.67,1.16,8.18,1.81,15.66a.8.8,0,0,1,0,.17c.27,2.49.5,5.86.69,9.43,0,.82.1,1.65.13,2.5.23,4.67.41,9.44.52,12.93a2.44,2.44,0,0,0,1.29,2.08,4.39,4.39,0,0,0,2,.54,14.75,14.75,0,0,0,5-.66,10.65,10.65,0,0,0,2.83-1.44,2.68,2.68,0,0,0,1.07-2.26c-.08-3-.27-10.8,0-18.63.39-9.94,1.16-28.64,1.16-28.64l-3.5-31.36-6.51-1.45c.34-1.82.7-3.91,1-5.39l.33-1.91H222.62s0,.18,0,.53C222.44,305.78,221.78,324.54,225.56,339.7Z" transform="translate(-82.84 -14.63)"/><path class="cls-106" d="M225.56,339.7c.39,1.57.7,3.1,1,4.58-.12-1.07-1.29-11.44-1.82-16.73-.56-5.59.35-23.05.35-23.05l-2.45-2.06C222.44,305.78,221.78,324.54,225.56,339.7Z" transform="translate(-82.84 -14.63)"/><path class="cls-93" d="M231.12,306.74a195.2,195.2,0,0,0,4.66,36.65C238.43,354.62,239,377,239,393a10.64,10.64,0,0,0,2.83-1.44,2.68,2.68,0,0,0,1.07-2.26c-.08-3-.27-10.8,0-18.63.39-9.94,1.16-28.64,1.16-28.64l-3.5-31.36-6.51-1.45c.34-1.82.7-3.91,1-5.39Z" transform="translate(-82.84 -14.63)"/><path class="cls-94" d="M236.64,308.31A142.92,142.92,0,0,0,244.11,356v0c1.59,4,2.83,7.21,3.16,8.57.71,2.81,3.94,31.06,4.71,37.88a7.38,7.38,0,0,0,1.07,3.13c1.17,1.87,2.86,3.47,5.92,3.18a14.07,14.07,0,0,0,2.57-.51,19,19,0,0,0,3.28-1.33,2.47,2.47,0,0,0,1.35-2.28c-.22-7.31-1.17-39.36-1.78-43.35-.68-4.52-3.45-14.37-4.76-32.45a19.48,19.48,0,0,1,.81-7.74,20.72,20.72,0,0,0,.21-12.58l-1.9.71c0-1.71.11-2.49.11-2.49h-.62l-22.3.47Z" transform="translate(-82.84 -14.63)"/><path class="cls-93" d="M251.08,321.84c-.66,6.35,6.58,34.57,7.34,41.82s3.12,44.6,3.12,44.6h0a19,19,0,0,0,3.28-1.33,2.47,2.47,0,0,0,1.35-2.28c-.22-7.31-1.17-39.36-1.78-43.35-.68-4.52-3.45-14.37-4.76-32.45a19.48,19.48,0,0,1,.81-7.74,20.72,20.72,0,0,0,.21-12.58l-1.9.71c0-1.71.11-2.49.11-2.49h-.62c-4,2.23-7.48,4.37-7.48,4.37A37.67,37.67,0,0,1,251.08,321.84Z" transform="translate(-82.84 -14.63)"/><path class="cls-107" d="M260.8,307.95a13.71,13.71,0,0,1,.36,1.74.85.85,0,0,1-.36.83,24.47,24.47,0,0,1-4.81,2.29,24.9,24.9,0,0,1-10.25,1.09c-1.26-.12-13.58-2.83-20.94-7.49a5.52,5.52,0,0,1-2.46-5.57v0C222.59,299.33,260.8,307.95,260.8,307.95Z" transform="translate(-82.84 -14.63)"/><path class="cls-6" d="M224.11,275.26c0,1.36.08,2.73.12,4.1a45.12,45.12,0,0,1-.67,9.14c-.45,2.56-1,5.7-1.35,8-.7,4.5.52,7.78,2.77,9.13l0,0c7.22,4.47,15.58,6.51,20,7.35a21.71,21.71,0,0,0,2.16.29,18.72,18.72,0,0,0,4.65-.19,15,15,0,0,0,1.88-.41l.58-.18a8.18,8.18,0,0,0,1.95-.9c2.94-1.87,3.17-3.3,3.38-5,.32-2.79-1.1-6.22-1.66-8.93-1.82-8.91,2.75-16.87,5.28-25.08,1.17-3.81,2.31-7.63,3.25-11.5.58-2.37,1.42-5.08,1.17-7.55l0-.16a11.2,11.2,0,0,0-.41-1.75,13.32,13.32,0,0,0-3.67-4.54,42.16,42.16,0,0,0-5-3.77l-.17-.11a38.48,38.48,0,0,0-3.79-2.2c-1.28-.64-2.91-1.38-5.22-2.28-.82-.33-1.67-.62-2.52-.88-1.58-.48-3.2-.88-4.84-1.22-2.52-.53-5.08-.94-7.54-1.41q-.63,0-1.27,0a61,61,0,0,0-8.83,1.82s-2.66,5-4.13,7.9C218,249.63,222.8,266.79,224.11,275.26Z" transform="translate(-82.84 -14.63)"/><path class="cls-100" d="M264.49,251.87c-3.76-6.43-13.14-9.58-14.78-10.12-5,7.42-10.87,7.59-10.87,7.59l-.25-3.19L237,247.33l-1.09,17.18L234,260.2l1.42-14.61,5.47-7,6-.72c.86.27,1.7.56,2.52.88a48.1,48.1,0,0,1,7.21,3.37l.16.09.58.35.66.41.41.26.17.11a42.16,42.16,0,0,1,5,3.77h0a13.18,13.18,0,0,1,3.67,4.53c0,.09.06.19.1.3a13.5,13.5,0,0,1,.31,1.45h0C268.58,258.59,265.58,258.47,264.49,251.87Z" transform="translate(-82.84 -14.63)"/><path class="cls-100" d="M235.94,243.51a17.14,17.14,0,0,0-2.26,2.44c-.67.88-1.12,1.87-1.74,2.77a12.41,12.41,0,0,1-.12-2.8,18.86,18.86,0,0,1,.21-3,14,14,0,0,1,2-5.29c.3.26.33.71.47,1.09.23.6.79,1,1,1.65s0,1.36.19,2" transform="translate(-82.84 -14.63)"/><path class="cls-98" d="M248.25,229.67v6.79s-6.95,5-10.64,4.29c-1.59-.31-2.42-2.34-2.09-5.21l3.36-.68Z" transform="translate(-82.84 -14.63)"/><path class="cls-6" d="M236.78,240.35l-4,4.64s-.15-5.57,2.49-8.41,2.68-.38,2.68-.38S235.57,239,236.78,240.35Z" transform="translate(-82.84 -14.63)"/><path class="cls-99" d="M229.07,220.64a39.26,39.26,0,0,0,.61,10.88c1.17,5.2,1.53,6.37,3.63,7.29s4,1,7.5-1.24a17.7,17.7,0,0,0,5.45-6s.5.33,1.76-1.09c2-2.22,2.35-3.33,2.35-6.35a21,21,0,0,0-3.1-10.75c-2.35-3.94-9.56-2.68-12.83-1S229.69,217.27,229.07,220.64Z" transform="translate(-82.84 -14.63)"/><path class="cls-108" d="M226.22,220.89c3.6,6.36,12.57,2.17,12.57,2.17.66,2.77,2.6,3,3.53,3.53s1.12,3.19,1.12,3.19h.85a19.27,19.27,0,0,1,.46-4,2.38,2.38,0,0,1,4.19-.41c1.14,1.76-.17,3.73-.92,5.19a6.65,6.65,0,0,0,.23,3.28,11,11,0,0,0,2.28-4.12,28.52,28.52,0,0,0,0-14.76,6.71,6.71,0,0,0-.74-1.79c-2.75-4.65-10.6-5.55-13.68-4.5-2.66.91-9.24,3.9-10.47,8.15A5.18,5.18,0,0,0,226.22,220.89Z" transform="translate(-82.84 -14.63)"/><path class="cls-94" d="M226,347.77q.07.51.14,1Q226,348.17,226,347.77Z" transform="translate(-82.84 -14.63)"/><path class="cls-94" d="M225.82,346.92s0,.08,0,.13S225.82,346.92,225.82,346.92Z" transform="translate(-82.84 -14.63)"/><path class="cls-109" d="M253.73,267.82a43.06,43.06,0,0,0,1.19-9.62c-.2-3.82-2.31-.4-2.52,2.72a73.76,73.76,0,0,1-2,9.86" transform="translate(-82.84 -14.63)"/><path class="cls-6" d="M248.25,235.77a6.51,6.51,0,0,1,.75,1.41,13.85,13.85,0,0,1,.48,1.58,18.37,18.37,0,0,1-10.64,8.36L238,240.8S244.79,239.87,248.25,235.77Z" transform="translate(-82.84 -14.63)"/><path class="cls-100" d="M252.51,289.59c-.16-.75-.26-1.2-.26-1.2L257,283.2s.79,8.15,1.07,10.86,3.6,11.32,3.44,14.34-9.65,4.67-9.65,4.67,2.57-6.3,2.43-11.18a55.49,55.49,0,0,0-1-7.92c-.26-1.52-.31-6.14-2.32-6.22a4.19,4.19,0,0,0-1.5.31c-2.58.88-6.15,4.89-8.68,5.89-2.33.92-5.8,4.1-7.78,1.81,2-2.71,8.16-9.72,8.65-10.55.62-1.05,9.38-21.11,10.91-23.68,1,5.92,1.79,13.23,2.78,19.15" transform="translate(-82.84 -14.63)"/><path class="cls-94" d="M238,240.8l.64,4.51-2.24,1.81-2.32-.74-.12-2.64,2.88-3.38A2,2,0,0,0,238,240.8Z" transform="translate(-82.84 -14.63)"/><path class="cls-94" d="M236.32,248.12q0-.5,0-1l-2.32-.75c.06,0-1.6,8.86-1.71,9.52-1.33,8.26-2.5,16.55-3.63,24.84-.52,3.85-.92,6.8-1.06,8a2.22,2.22,0,0,0,.12,1.09l2.35,6.17c.12.34,5.81-5.53,5.77-6.1C235.81,288.66,236,259.41,236.32,248.12Zm-5.13,15.57h0C231.19,263.79,231.18,263.81,231.19,263.69Z" transform="translate(-82.84 -14.63)"/><path class="cls-110" d="M226.22,220.89c3.6,6.36,12.57,2.17,12.57,2.17.66,2.77,2.6,3,3.53,3.53s1.12,3.19,1.12,3.19h.85a19.27,19.27,0,0,1,.46-4,2.38,2.38,0,0,1,4.19-.41c1.14,1.76-.17,3.73-.92,5.19a6.65,6.65,0,0,0,.23,3.28,11,11,0,0,0,2.28-4.12,28.52,28.52,0,0,0,0-14.76,6.71,6.71,0,0,0-.74-1.79,44,44,0,0,1-10.39,6.71c-5.64,2.37-10,1.86-11.42.65a5.49,5.49,0,0,1-2.33-3.71h0A5.18,5.18,0,0,0,226.22,220.89Z" transform="translate(-82.84 -14.63)"/><path class="cls-6" d="M252.4,260.91c-2.92,8.78-5.23,17.87-10.08,26.52-8.93,7.22-15.51,15.06-22.57,21.74,1.35,2.54,1.32,4,2.67,6.57,2.06-.49,19.7-12.95,27.07-17.72s9.54-9,12.93-17.14c3.1-7.42,5.73-19.45,5.29-27.48" transform="translate(-82.84 -14.63)"/><path class="cls-100" d="M267.7,253.4l-2.67.34c0,7.93-3.86,20.32-6.72,27.15-3.39,8.1-5.56,12.37-12.93,17.14-5.78,3.74-17.85,12.19-23.8,15.9a15.78,15.78,0,0,0,.82,1.81c2.06-.49,19.7-12.95,27.07-17.72s9.54-9,12.93-17.14C265.52,273.47,268.14,261.43,267.7,253.4Z" transform="translate(-82.84 -14.63)"/><path class="cls-98" d="M207.57,317.32a23.33,23.33,0,0,0,2.88-1.26,17.7,17.7,0,0,1,3.57-.87,1.51,1.51,0,0,1-.85,2.1,22.41,22.41,0,0,0-2.22,1.26,12,12,0,0,1-5.57,4.8" transform="translate(-82.84 -14.63)"/><path class="cls-111" d="M213.16,317.29c-.74.42-1.46.87-2.16,1.35l0,0a12.1,12.1,0,0,1-2.41,2.89,9.19,9.19,0,0,1-1.52,1.11,8.08,8.08,0,0,1-1.72.75,11.12,11.12,0,0,0,3.09-2,14.89,14.89,0,0,0,2.39-2.82v0h0A16.85,16.85,0,0,1,213.16,317.29Z" transform="translate(-82.84 -14.63)"/><path class="cls-111" d="M207.79,317a.78.78,0,0,0,.59-.06,4.8,4.8,0,0,0,.56-.23,11,11,0,0,1,1.14-.47,23,23,0,0,1,2.38-.73,22.73,22.73,0,0,1-2.28,1c-.39.14-.78.25-1.17.42S208.18,317.16,207.79,317Z" transform="translate(-82.84 -14.63)"/><path class="cls-112" d="M197.39,321.32l1.94-.32s1.28.84,1.51,1.61a8.35,8.35,0,0,1-.12,4.2l-6.16,1.83" transform="translate(-82.84 -14.63)"/><path class="cls-113" d="M144.64,297.07S160,315.5,163.29,316.15,198.13,321,198.13,321a3.11,3.11,0,0,1,2,2.38,12.25,12.25,0,0,1-.93,4.55s-33.07,3.9-36,3.12-30.71-24.63-30.71-24.63" transform="translate(-82.84 -14.63)"/><path class="cls-13" d="M164.09,326.73c-2.45-.64-21.88-17.09-28.5-22.73l-3.16,2.42s27.75,23.85,30.71,24.63,36-3.12,36-3.12a17.86,17.86,0,0,0,.58-1.76C196.47,326.3,166.89,327.47,164.09,326.73Z" transform="translate(-82.84 -14.63)"/><path class="cls-114" d="M199.05,467.5a61.51,61.51,0,0,0,1.15-10.71c.15-6.16-1.38-12.73-8.25-13.82-10.75-1.71-22.16-.31-32.84,1.37-8.84,1.39-20.36,1.38-27.56,7.39-11.05,9.23,3.25,21,10.95,26.27,14.75,10.13,36.12,23,50.17,4.41A36.55,36.55,0,0,0,199.05,467.5Z" transform="translate(-82.84 -14.63)"/><path class="cls-102" d="M139.38,470v.1a.51.51,0,0,0,0,.11.38.38,0,0,1,0,.14c.18.62.89,2.23,3.62,2.71a4.92,4.92,0,0,0,.51.06l.21,0a16.84,16.84,0,0,0,2,0c.22,0,.45,0,.67-.06a16,16,0,0,0,6.44-3.51l.19-.18v-.56s2-1.31,2.68-1.74c2.18-1.29,5.33-2.39,8.32-3.88a8.87,8.87,0,0,0,2.11-1.42c.1-.1.19-.21.29-.29a1.8,1.8,0,0,0,.18-.18c.06-.08.11-.18.18-.26l.33-.48.13-.24.11-.22a1.39,1.39,0,0,0,.08-.24v0a3.9,3.9,0,0,0,.18-1.13v-2l-18.26,7.48-10,3.73Z" transform="translate(-82.84 -14.63)"/><path class="cls-103" d="M150.25,456.37a72.4,72.4,0,0,0,8-1c5-.85,8.42-1.1,9.07.46s.77,3.12-3.68,6.17-7.9,3.36-11.46,6.24a12.47,12.47,0,0,1-7.68,2.81c-2.66.18-4.45-.84-5-1.92-1.35-2.52,0-7.28,0-7.28" transform="translate(-82.84 -14.63)"/><path class="cls-102" d="M157.34,472.9l0,2.47a2.32,2.32,0,0,0,1.26,2.14,3.45,3.45,0,0,0,1.08.3,37.81,37.81,0,0,0,7.85-.38v-.91s1.69-.19,6.68-.81a29.77,29.77,0,0,0,10.33-3.08,2.24,2.24,0,0,0,1.19-2v-1.81l-19.62,3.46Z" transform="translate(-82.84 -14.63)"/><path class="cls-103" d="M171.1,464.21a8,8,0,0,0,4.75,2.06c2.57,0,7.58-.06,8.86.83a2.11,2.11,0,0,1,1,1.61,3.25,3.25,0,0,1-.68,2c-1,1.41-7.45,3.53-12.33,3.92a72,72,0,0,0-7.45.71c-2.31.39-4.72.57-6.17-.15-2.52-1.25-2.69-5-1.15-7.55S171.1,464.21,171.1,464.21Z" transform="translate(-82.84 -14.63)"/><path class="cls-99" d="M144.46,282.55l-.4.92.61,3.06,9.76,4.91.57-.08,1.56-.19,2.46-.32v-3.38a4.43,4.43,0,0,1,2.54-4.11l.11,0a4.75,4.75,0,0,0,1.66-1.12l.14-.14c1.88-2,3.56-6.47,3.08-16.28a18.85,18.85,0,0,0-1.26-6.19c-1.42-2.73-4.43-4.53-10.65-2.82-10.37,2.87-14.9,7.58-15.42,11.64S144.46,282.55,144.46,282.55Z" transform="translate(-82.84 -14.63)"/><path class="cls-98" d="M159,290.86v-3.38a4.43,4.43,0,0,1,2.54-4.11c-.51.22-2.08,1-4.18,2.1-.84.45-.81,3.15-.81,5.71Z" transform="translate(-82.84 -14.63)"/><path class="cls-115" d="M174.76,308.32,195.44,319l9.44-30.21a2.28,2.28,0,0,0-1.1-2.69l-17.3-8.88a1.64,1.64,0,0,0-2.32,1Z" transform="translate(-82.84 -14.63)"/><path class="cls-12" d="M176.1,307.67l18.44,9.53,8.79-28.05c.34-1.28.28-1.84-1-2.48l-16.14-8.34a.73.73,0,0,0-1,.46Z" transform="translate(-82.84 -14.63)"/><path class="cls-116" d="M192.58,291.9l5.71,2.95a.27.27,0,0,0,.39-.17l1.57-5.22a.3.3,0,0,0-.14-.35l-5.71-2.95a.28.28,0,0,0-.39.17l-1.57,5.22A.3.3,0,0,0,192.58,291.9Zm-4.2,13.21,4.43,2.28a.21.21,0,0,0,.3-.13l3.47-11.09a.23.23,0,0,0-.11-.27L192,293.61a.21.21,0,0,0-.3.13l-3.47,11.09A.23.23,0,0,0,188.38,305.11Zm-2.58-9.94,3.39,1.75a.16.16,0,0,0,.23-.1l.05-.22a.18.18,0,0,0-.08-.21L186,294.64a.16.16,0,0,0-.23.1l-.05.22A.18.18,0,0,0,185.8,295.16Zm2.8,2.87a.29.29,0,0,0,.41-.18l.09-.39a.31.31,0,0,0-.15-.37l-6-3.1a.29.29,0,0,0-.41.18l-.09.39a.31.31,0,0,0,.15.37m-.34,1.12,6,3.1a.29.29,0,0,0,.41-.18l.09-.39a.31.31,0,0,0-.15-.37l-6-3.1a.29.29,0,0,0-.41.18l-.09.39A.31.31,0,0,0,182.26,296.06Zm-.34,1.12,6,3.1a.29.29,0,0,0,.41-.18l.09-.39a.31.31,0,0,0-.15-.37l-6-3.1a.29.29,0,0,0-.41.18l-.09.39A.31.31,0,0,0,181.92,297.18Zm-.34,1.12,6,3.1a.29.29,0,0,0,.41-.18l.09-.39a.31.31,0,0,0-.15-.37l-6-3.1a.29.29,0,0,0-.41.18l-.09.39A.31.31,0,0,0,181.58,298.3Zm-.34,1.12,6,3.1a.29.29,0,0,0,.41-.18l.09-.39a.31.31,0,0,0-.15-.37l-6-3.1a.29.29,0,0,0-.41.18l-.09.39A.31.31,0,0,0,181.24,299.42Zm3.36-11,6.27,3.23a.3.3,0,0,0,.43-.19l1.73-5.73a.33.33,0,0,0-.16-.38l-6.27-3.23a.3.3,0,0,0-.43.19l-1.73,5.73A.33.33,0,0,0,184.6,288.44Z" transform="translate(-82.84 -14.63)"/><path class="cls-99" d="M191,312.84l3.34,2.78.63.53s.77-3.2,2.12-4.41a8.68,8.68,0,0,1,2.58-1.17,2.07,2.07,0,0,0,1.11-.74c.65-.89,1.61-2.85,1.11-6.24a3.77,3.77,0,0,0-.43-1.41,0,0,0,0,1,0,0c-.41-.71-.93-.69-.93-.69s-2.25,1.6-2.9,2.08-1.22,1.18-1.75.59c-.29-.3,1.36-2.38,1.82-3.33s-.42-2-.81-1.61a23,23,0,0,0-3.62,5.74C192.33,307.39,191,312.84,191,312.84Z" transform="translate(-82.84 -14.63)"/><path class="cls-98" d="M193.59,313.24l.77,2.38.63.53s.77-3.2,2.12-4.41a8.68,8.68,0,0,1,2.58-1.17,2.07,2.07,0,0,0,1.11-.74c.65-.89,1.61-2.85,1.11-6.24a3.77,3.77,0,0,0-.43-1.41,0,0,0,0,1,0,0s0,.58-.95,1.41a23.22,23.22,0,0,1-2.94,2,8.87,8.87,0,0,0-2.26,3.41C194.68,310.45,193.59,313.24,193.59,313.24Z" transform="translate(-82.84 -14.63)"/><path class="cls-112" d="M195.61,316.07l.58-1.86a1.47,1.47,0,0,0-.07-1.07,8.75,8.75,0,0,0-1.53-2.36,2.3,2.3,0,0,0-2.79-.45,4.08,4.08,0,0,0-.73,1.41,4.72,4.72,0,0,0-.14,1.66c.05.13,1.24,1.83,1.38,2A32.08,32.08,0,0,0,195.61,316.07Z" transform="translate(-82.84 -14.63)"/><path class="cls-94" d="M134.46,375.3c2.31,12.63,4,28.29,4,28.29s-3.86,31.37.48,58.69c.19,1.29.64,4,2.3,5.09a6.22,6.22,0,0,0,5.36,0l.24-.13c6.47-3.54,5.79-8.13,6.73-11.15,0-12.15-1.29-42.05,1.29-48.63l2.31-26.51L156.3,362H133.11V362L133,362S131,367.07,134.46,375.3Z" transform="translate(-82.84 -14.63)"/><path class="cls-93" d="M141.55,375.81c2.18,7.18,5,25.92,5.58,30.49,0,0-2.15,36.09-.32,60.91,6.47-3.54,5.79-8.13,6.73-11.15,0-12.15-1.29-42.05,1.29-48.63l2.31-26.51L156.3,362H140.35A35.13,35.13,0,0,0,141.55,375.81Z" transform="translate(-82.84 -14.63)"/><path class="cls-94" d="M143,368.24a37.18,37.18,0,0,0,5,12.12c.45.67.85,1.36,1.23,2,.08.32,1.21,4.56,2.62,10.25s3.11,12.84,4.32,18.91c-.67,7.62-2.55,34.32,1,57.44a4.24,4.24,0,0,0,3,3.44,7.61,7.61,0,0,0,2.55.27,6.41,6.41,0,0,0,2.14-.51c3.8-1.59,6.54-7.67,6.54-7.67s.1-38.4,2.09-48.48a44.91,44.91,0,0,0,.7-5.82c.37-6.17,1-17.43,1.24-22.14a193.33,193.33,0,0,0,.14-20.27l-19,.24Z" transform="translate(-82.84 -14.63)"/><path class="cls-93" d="M156.7,368.08l.16,1.88a47.67,47.67,0,0,0,2.6,12c2.42,7.18,4.83,24.19,5.08,30.57.26,5.87-2.87,33.84-1.7,60.24a6.41,6.41,0,0,0,2.14-.51c3.8-1.59,6.54-7.67,6.54-7.67s.1-38.4,2.09-48.48a44.91,44.91,0,0,0,.7-5.82c.37-6.17,1-17.43,1.24-22.14a193.33,193.33,0,0,0,.14-20.27Z" transform="translate(-82.84 -14.63)"/><path class="cls-11" d="M130.75,314.67c3.06,9.3,4.78,24.58,2.93,31A115.58,115.58,0,0,0,130.75,361c1.74,4.78,17.94,15.15,27,15.95a13.62,13.62,0,0,0,3.32-.13c8-1.18,15.42-8.25,15.42-8.25s-1.72-26.19-2.79-42.93c-.72-11.13-2.36-18.07-3.4-21.47a25.71,25.71,0,0,0-.86-2.52c-1-1.26-3.81-3.4-7.45-5.79l-.08,0c-2.44-1.63-5.22-3.35-8-5h0c-3.72-2.2-7.46-4.26-10.46-5.76l-1-.48a23.84,23.84,0,0,0-4.61-1.88c-4.26-.8-10,1.45-11.69,9.17S127.7,305.35,130.75,314.67Z" transform="translate(-82.84 -14.63)"/><path class="cls-117" d="M162,345.51c.54,7.14-.54,25-1,31.35,8-1.18,15.42-8.25,15.42-8.25s-1.72-26.19-2.79-42.93c-.72-11.13-2.36-18.07-3.4-21.47-.86-1-1.42-1.61-1.42-1.61H158.37s-5.45,1.12-3.48,13.54S161.35,336.74,162,345.51Z" transform="translate(-82.84 -14.63)"/><path class="cls-118" d="M210,264.88" transform="translate(-82.84 -14.63)"/><path class="cls-119" d="M142.34,288.58c1.59,2.18,7.32,5.34,9.95,5.9a23.38,23.38,0,0,0,6,.25,7.63,7.63,0,0,1,3.6,1.15l.08,0,0,0-1.56-2.38-1.82-1.16s-2.66-1-3.25-1.24a6.74,6.74,0,0,0-1.48-.26h0c-1.58-.19-3.84-.35-4.19-.4a50.63,50.63,0,0,1-4.78-3c-.1-.06-.91-1.4-1.48-2.36l-1-.48A3,3,0,0,0,142.34,288.58Z" transform="translate(-82.84 -14.63)"/><path class="cls-108" d="M136.49,268.77c.89,5.33,5.41,13.7,7.69,14.46a13.35,13.35,0,0,0,3.76.72,3.59,3.59,0,0,0,3.7-2.93,17.13,17.13,0,0,1,1.55-4.82c1.59-3,3.68-4.5,4.74-3.94s.94,2.44.94,2.44l.69,0s.06-.61.16-1.42.16-1.82.21-2.6a9,9,0,0,1,1.83-5.52,21.84,21.84,0,0,0,2.55-4.7,8.62,8.62,0,0,0,.64-4.21v0c-.43-4.1-2.1-5.78-3.68-6.94-5.16-3.78-15.95,3.24-19.93,6.59a13.73,13.73,0,0,0-4.47,6.35v0A13.68,13.68,0,0,0,136.49,268.77Z" transform="translate(-82.84 -14.63)"/><path class="cls-6" d="M143.08,284.4l1-.92a23,23,0,0,0,15,7.38,12.75,12.75,0,0,1,3,5.08l-1.36-.88a6.07,6.07,0,0,0-2.35-.92c-.53-.08-1.72-.14-1.72-.14-5.33-.07-10.63-3.79-13.4-6.09A2.33,2.33,0,0,1,143.08,284.4Z" transform="translate(-82.84 -14.63)"/><path class="cls-120" d="M195.31,313.82" transform="translate(-82.84 -14.63)"/><path class="cls-120" d="M205.34,289.71" transform="translate(-82.84 -14.63)"/><path class="cls-121" d="M167.19,461.15a2.66,2.66,0,0,1-.34.48C167,461.46,167.1,461.3,167.19,461.15Z" transform="translate(-82.84 -14.63)"/><path class="cls-121" d="M166.68,461.88c.07-.08.11-.17.17-.25-.1.13-.21.27-.35.43A1.8,1.8,0,0,0,166.68,461.88Z" transform="translate(-82.84 -14.63)"/><path class="cls-11" d="M157.22,311.3c1,5.87,12.2,22.95,12.66,23.63a82.42,82.42,0,0,0,5.6,8h0c1.48,1.85,2.71,3,3.48,3.27a3.67,3.67,0,0,0,.45.11,6,6,0,0,0,7.07-3.94,124,124,0,0,0,5.84-12.76c1.48-4,2.38-9,3.33-13a3.92,3.92,0,0,0-.4-2.87c0-.06-.08-.14-.13-.21-.62-1-1.48-2.2-2.25-2.33-1.4-.21-1.67.16-1.67.16s-2.57,4.13-4.61,7.32a60.29,60.29,0,0,0-4.07,8.61c-.19.54-.32.86-.32.86-3.7-8.6-8.53-19.15-10.49-23.57a8,8,0,0,0-13.35-2,1.64,1.64,0,0,1-.16.19,3.19,3.19,0,0,0-.53,1.07l0,0,0,0C157.45,304.13,156.28,305.82,157.22,311.3Z" transform="translate(-82.84 -14.63)"/><path class="cls-110" d="M136.49,268.77c.89,5.33,5.41,13.7,7.69,14.46a13.35,13.35,0,0,0,3.76.72,3.59,3.59,0,0,0,3.7-2.93,17.13,17.13,0,0,1,1.55-4.82c1.59-3,3.68-4.5,4.74-3.94s.94,2.44.94,2.44l.69,0s.06-.61.16-1.42.16-1.82.21-2.6a9,9,0,0,1,1.83-5.52,21.84,21.84,0,0,0,2.55-4.7,8.62,8.62,0,0,0,.64-4.21,23.56,23.56,0,0,1-16.81,13.83c-12.54,2.63-11.35-7.32-11.28-7.83A13.68,13.68,0,0,0,136.49,268.77Z" transform="translate(-82.84 -14.63)"/><path class="cls-122" d="M182.53,327.32c-.19.54-.32.86-.32.86a11.61,11.61,0,0,1,1,5.18A6.52,6.52,0,0,0,182.53,327.32Z" transform="translate(-82.84 -14.63)"/><path class="cls-13" d="M157.64,303.89l0,0s-.38,4.9,4.26,13.06,14.53,27.71,19.41,27.18c2.57-.28,8.25-12.36,10.37-18a94.35,94.35,0,0,0,3.41-12.55c0,.06.08.14.13.21a3.92,3.92,0,0,1,.4,2.87c-1,4-1.85,8.95-3.33,13a124,124,0,0,1-5.84,12.76,6,6,0,0,1-7.07,3.92v0a3.67,3.67,0,0,1-.45-.11c-.77-.22-2-1.42-3.48-3.27h0a82.42,82.42,0,0,1-5.6-8c-.46-.69-11.66-17.77-12.66-23.63C156.28,305.82,157.45,304.13,157.64,303.89Z" transform="translate(-82.84 -14.63)"/></g></g></svg>